<?xml version="1.0" encoding="UTF-8"?>
<svg width="24px" height="16px" viewBox="0 0 24 16" version="1.1" xmlns="http://www.w3.org/2000/svg" xmlns:xlink="http://www.w3.org/1999/xlink">
    <defs>
        <rect id="path-1" x="0" y="0" width="24" height="16" rx="2"></rect>
    </defs>
    <g id="页面-1" stroke="none" stroke-width="1" fill="none" fill-rule="evenodd">
        <g id="国旗" transform="translate(-48.000000, -78.000000)">
            <g id="国旗/加元" transform="translate(48.000000, 78.000000)">
                <mask id="mask-2" fill="white">
                    <use xlink:href="#path-1"></use>
                </mask>
                <use id="矩形" fill="#D8D8D8" xlink:href="#path-1"></use>
                <g id="加拿大" mask="url(#mask-2)" fill-rule="nonzero">
                    <polygon id="路径" fill="#D9374B" points="0 5.58542403e-18 5.99505746 5.58542403e-18 5.99505746 16 0 16"></polygon>
                    <polygon id="路径" fill="#FFFFFF" points="6.01484334 5.58542403e-18 18.0247284 5.58542403e-18 18.0247284 16 6.01484334 16"></polygon>
                    <path d="M18.0049425,0 L24,0 L24,16 L18.0049425,16 L18.0049425,0 Z M12.0098851,13.409148 L12.2077438,13.409148 L12.1483862,10.8776292 L12.3264591,10.7194073 C13.1178941,10.818296 13.8301699,10.8974069 14.6215892,10.9962956 L14.4237305,10.3040748 C14.3841587,10.1854084 14.4435163,10.0469643 14.5226598,9.96786904 L16.8178057,8.00988887 L16.3429447,7.77255603 C16.1253001,7.69344509 16.1846577,7.57477867 16.2638012,7.27811263 L16.619947,5.95303574 L15.294309,6.24970178 C15.1558079,6.2694638 15.0766644,6.19035285 15.0568785,6.11124191 L14.8788056,5.47837007 L13.8301699,6.70457399 C13.6718829,6.90235136 13.3750948,6.90235136 13.4740242,6.44746342 L13.9290993,3.93572236 L13.3157372,4.27194387 C13.1376643,4.37083256 12.979393,4.39061029 12.8804636,4.21261067 L12.0098851,2.59085201 L11.1591081,4.21261067 C11.0601788,4.39061029 10.9018918,4.37083256 10.7238189,4.27194387 L10.1104725,3.93572236 L10.5655319,6.44746342 C10.6644612,6.90235136 10.3478872,6.90235136 10.2094018,6.70457399 L9.16075041,5.47837007 L8.98267753,6.11124191 C8.96290738,6.19035285 8.88374815,6.28924153 8.74526275,6.2694638 L7.39983892,5.97279775 L7.75596896,7.29790608 C7.83511246,7.59457213 7.89447009,7.71322282 7.67682545,7.79234949 L7.20198016,8.0296666 L9.4971103,9.98763105 C9.59603968,10.066742 9.63561143,10.1854084 9.59603968,10.3238526 L9.39818092,11.0160733 C10.189616,10.9171847 10.9018918,10.8380737 11.6933111,10.739185 L11.8713839,10.8974069 L11.8120263,13.4289257 L12.0098851,13.4289257 L12.0098851,13.409148 Z" id="形状" fill="#D9374B"></path>
                </g>
            </g>
        </g>
    </g>
</svg>