<?xml version="1.0" encoding="UTF-8"?>
<svg width="20px" height="20px" viewBox="0 0 20 20" version="1.1" xmlns="http://www.w3.org/2000/svg" xmlns:xlink="http://www.w3.org/1999/xlink">
    <title></title>
    <g id="页面-1" stroke="none" stroke-width="1" fill="none" fill-rule="evenodd">
        <g id="PanPay网银规范/图标" transform="translate(-470.000000, -427.000000)">
            <g id="侧边栏/账户总览/已选" transform="translate(470.000000, 427.000000)">
                <rect id="矩形" x="0" y="0" width="20" height="20"></rect>
                <g id="侧边栏/账户总览" transform="translate(1.500000, 1.500000)">
                    <rect id="矩形" x="0" y="0" width="17" height="17"></rect>
                    <g id="编组-6" fill="#FFFFFF">
                        <path d="M1.5,0 L6.05555556,0 C6.88398268,5.836115e-16 7.55555556,0.671572875 7.55555556,1.5 L7.55555556,7.47222222 C7.55555556,8.30064935 6.88398268,8.97222222 6.05555556,8.97222222 L1.5,8.97222222 C0.671572875,8.97222222 -1.20591542e-16,8.30064935 0,7.47222222 L0,1.5 C-3.23497668e-16,0.671572875 0.671572875,5.96268804e-16 1.5,0 Z" id="矩形"></path>
                        <path d="M10.9444444,8.02777778 L15.5,8.02777778 C16.3284271,8.02777778 17,8.69935065 17,9.52777778 L17,15.5 C17,16.3284271 16.3284271,17 15.5,17 L10.9444444,17 C10.1160173,17 9.44444444,16.3284271 9.44444444,15.5 L9.44444444,9.52777778 C9.44444444,8.69935065 10.1160173,8.02777778 10.9444444,8.02777778 Z" id="矩形备份-7"></path>
                        <path d="M1.5,10.8611111 L6.05555556,10.8611111 C6.88398268,10.8611111 7.55555556,11.532684 7.55555556,12.3611111 L7.55555556,15.5 C7.55555556,16.3284271 6.88398268,17 6.05555556,17 L1.5,17 C0.671572875,17 1.01453063e-16,16.3284271 0,15.5 L0,12.3611111 C-1.01453063e-16,11.532684 0.671572875,10.8611111 1.5,10.8611111 Z" id="矩形备份"></path>
                        <path d="M10.9444444,0 L15.5,0 C16.3284271,5.836115e-16 17,0.671572875 17,1.5 L17,4.63888889 C17,5.46731601 16.3284271,6.13888889 15.5,6.13888889 L10.9444444,6.13888889 C10.1160173,6.13888889 9.44444444,5.46731601 9.44444444,4.63888889 L9.44444444,1.5 C9.44444444,0.671572875 10.1160173,1.52179594e-16 10.9444444,0 Z" id="矩形备份-2" opacity="0.400000006"></path>
                    </g>
                </g>
            </g>
        </g>
    </g>
</svg>