<?xml version="1.0" encoding="UTF-8"?>
<svg width="24px" height="16px" viewBox="0 0 24 16" version="1.1" xmlns="http://www.w3.org/2000/svg" xmlns:xlink="http://www.w3.org/1999/xlink">
    <defs>
        <path d="M2,0 L22,0 C23.1045695,-2.02906125e-16 24,0.8954305 24,2 L24,14 C24,15.1045695 23.1045695,16 22,16 L2,16 C0.8954305,16 1.3527075e-16,15.1045695 0,14 L0,2 C-1.3527075e-16,0.8954305 0.8954305,2.02906125e-16 2,0 Z" id="path-1"></path>
    </defs>
    <g id="页面-1" stroke="none" stroke-width="1" fill="none" fill-rule="evenodd">
        <g id="国旗" transform="translate(-122.000000, -78.000000)">
            <g id="澳洲" transform="translate(122.000000, 78.000000)">
                <mask id="mask-2" fill="white">
                    <use xlink:href="#path-1"></use>
                </mask>
                <use id="路径" fill="#00227D" fill-rule="nonzero" xlink:href="#path-1"></use>
                <path d="M5.92259878,11.5050312 L6.63460215,10.4000937 L5.43460755,10.8571094 L5.02220192,9.6005625 L4.60979629,10.8571094 L3.40980169,10.4000781 L4.12180506,11.5050312 L2.99719561,12.1904531 L4.30919629,12.3049687 L4.12180506,13.6000156 L5.02180102,12.6474687 L5.92179697,13.6000156 L5.73440575,12.3049687 L7.04640643,12.1904531 L5.92179697,11.5050312 L5.92259878,11.5050312 Z M19.304611,12.8000781 L19.642202,12.2666562 L19.0422047,12.4950625 L18.8545976,11.8856406 L18.6672063,12.4950625 L18.1048014,12.2666562 L18.4424078,12.8000937 L17.9174102,13.1040781 L18.5174075,13.1800781 L18.4424078,13.7895156 L18.854798,13.3324844 L19.304796,13.7895156 L19.192204,13.1800781 L19.8292077,13.1040781 L19.3042101,12.8000781 L19.304611,12.8000781 Z M15.8186069,7.23807812 L16.1936052,6.70464062 L15.5936079,6.9330625 L15.4060008,6.32364062 L15.2186096,6.9330625 L14.6185969,6.70465625 L14.9935952,7.23807812 L14.4312057,7.54207812 L15.0682094,7.58017187 L14.9932097,8.22770312 L15.4058004,7.77067187 L15.8184064,8.22770312 L15.7434068,7.58017187 L16.3809964,7.54228125 L15.8186069,7.23828125 L15.8186069,7.23807812 Z M18.5186102,3.77245312 L18.4436105,4.41998437 L18.8562012,3.96295312 L19.3061992,4.41998437 L19.1916026,3.7714375 L19.8286063,3.73354687 L19.3036087,3.42954687 L19.6411997,2.89610937 L19.0412024,3.12453125 L18.8536107,2.51510937 L18.6662041,3.12453125 L18.1037991,2.896125 L18.4414055,3.42954687 L17.9164079,3.73354687 L18.5164052,3.77164062 L18.5186102,3.77245312 Z M22.9046102,6.5915625 L22.3795971,6.2875625 L22.7172035,5.754125 L22.1172062,5.98254687 L21.9295992,5.373125 L21.7410052,5.98051562 L21.1783998,5.75210937 L21.5160062,6.28554687 L20.9910086,6.58953125 L21.5910059,6.66553125 L21.5160062,7.27496875 L21.9285969,6.8179375 L22.3786103,7.27496875 L22.2662033,6.66553125 L22.903207,6.58953125 L22.9046102,6.5915625 Z M20.3915972,8.571625 L20.2415979,8.19060937 L20.0915986,8.571625 L19.7166003,8.60971875 L20.0165989,8.87623437 L19.9041919,9.25725 L20.2415979,9.02884375 L20.5792043,9.25725 L20.5042047,8.87623437 L20.8042033,8.60971875 L20.3915972,8.571625 Z" id="形状" fill="#FFFFFF" fill-rule="nonzero" mask="url(#mask-2)"></path>
                <polygon id="路径" fill="#00237A" fill-rule="nonzero" mask="url(#mask-2)" points="0 0 11.8422062 0 11.8422062 7.84 0 7.84"></polygon>
                <polygon id="路径" fill="#FFFFFF" fill-rule="nonzero" mask="url(#mask-2)" points="11.8422062 2.75242188 7.06440079 2.75242188 7.06440079 0 4.74180125 0 4.74180125 2.75242188 0 2.75242188 0 5.08959375 4.74180125 5.08959375 4.74180125 7.84 7.06440079 7.84 7.06440079 5.08959375 11.8422062 5.08959375"></polygon>
                <polygon id="路径" fill="#FFFFFF" fill-rule="nonzero" mask="url(#mask-2)" points="11.8422062 6.945625 1.3282064 0 0 0 0 0.90409375 10.5040081 7.84 11.8422062 7.84"></polygon>
                <polygon id="路径" fill="#FFFFFF" fill-rule="nonzero" mask="url(#mask-2)" points="0 6.945625 10.5137993 0 11.8420057 0 11.8420057 0.90409375 1.33819813 7.84 0 7.84"></polygon>
                <polygon id="路径" fill="#CF142B" fill-rule="nonzero" mask="url(#mask-2)" points="11.8422062 3.2426875 6.57681047 3.2426875 6.57681047 0 5.22920654 0 5.22920654 3.2426875 0 3.2426875 0 4.59873438 5.22920654 4.59873438 5.22920654 7.83998438 6.57679505 7.83998438 6.57679505 4.59895313 11.8421908 4.59895313"></polygon>
                <path d="M11.8422062,7.84 L11.8422062,7.2245 L8.58360654,5.08959375 L7.66618674,5.08959375 L11.8422062,7.84 Z M11.8422062,0 L10.9248018,0 L7.0648017,2.52159375 L7.0648017,2.752625 L7.63820064,2.752625 L11.8422062,0 Z M4.13999988,5.08959375 L0,7.8209375 L0,7.84 L0.87999707,7.84 L4.74180125,5.30096875 L4.74180125,5.08959375 L4.13999988,5.08959375 L4.13999988,5.08959375 Z M0,0 L0,0.6155 L3.24120664,2.75242188 L4.16840231,2.75242188 L0,0 Z" id="形状" fill="#CF142B" fill-rule="nonzero" mask="url(#mask-2)"></path>
            </g>
        </g>
    </g>
</svg>