<?xml version="1.0" encoding="UTF-8"?>
<svg width="64px" height="64px" viewBox="0 0 64 64" version="1.1" xmlns="http://www.w3.org/2000/svg" xmlns:xlink="http://www.w3.org/1999/xlink">
    <g id="文案优化" stroke="none" stroke-width="1" fill="none" fill-rule="evenodd">
        <g id="激活收款账户-B2B贸易-Step1" transform="translate(-436.000000, -403.000000)">
            <g id="编组" transform="translate(380.000000, 292.000000)">
                <g id="编组-4" transform="translate(32.000000, 88.000000)">
                    <g id="CITI" transform="translate(24.000000, 23.000000)">
                        <rect id="矩形" x="0" y="0" width="64" height="64"></rect>
                        <g id="编组-37" transform="translate(10.000000, 18.000000)" fill-rule="nonzero">
                            <path d="M13.4074888,22.5866911 L15.4439798,24.9211539 L15.3875458,24.9780434 C13.6903225,26.970837 11.6537209,27.9387337 9.16454117,27.9387337 C6.61881685,27.9387337 4.35603685,27.1416162 2.71546879,25.6043816 C0.96159021,23.9531465 0,21.6757946 0,18.9427731 C0,16.2098623 0.905156262,13.9323997 2.71546879,12.2812753 C4.35603685,10.8009302 6.67547211,9.94692321 9.16454117,9.94692321 C11.6537209,9.94692321 13.6903225,10.9148199 15.3874351,12.9076135 L15.4439798,12.964503 L13.4074888,15.4127448 L13.3508336,15.3558553 C12.106299,14.1032896 10.6353648,13.4200619 9.10799657,13.4200619 C5.93994965,13.4200619 3.677059,15.7543034 3.677059,18.9997733 C3.677059,22.2451326 5.93994965,24.5794847 9.10799657,24.5794847 C10.6354754,24.5794847 12.106299,23.896257 13.3508336,22.6436913 L13.4074888,22.5866911 Z M21.0446618,10.3454819 L21.0446618,27.7109542 L17.4805813,27.7109542 L17.4805813,10.3454819 L21.0446618,10.3454819 Z M35.2439963,23.8393674 L34.3953847,27.1985057 L34.3388401,27.1985057 C33.7730621,27.5401749 32.8113612,28.0526234 31.1707932,27.9956232 C28.7948133,27.9387337 27.2107898,26.1167193 27.2107898,23.4408087 L27.2107898,13.5908412 L24.1559428,13.5908412 L24.1559428,10.3454819 L27.2107898,10.3454819 L27.2107898,6.81545368 L30.718215,4.93654982 L30.718215,10.3454819 L34.3953847,10.3454819 L34.3953847,13.6477307 L30.7183257,13.6477307 L30.7183257,22.8713601 C30.7183257,24.1809259 31.283993,24.8071534 32.4153277,24.8071534 C33.2073948,24.8071534 34.112551,24.5225951 35.0742519,23.9531465 L35.2439963,23.8393674 Z M38.0725543,10.3454819 L41.6365241,10.3454819 L41.6365241,27.7109542 L38.0725543,27.7109542 L38.0725543,10.3454819 Z" id="形状结合" fill="#022E72"></path>
                            <path d="M43.8305875,7.25673488 C40.5529923,2.70014953 35.1280301,0 29.5900894,0 C24.0520379,0 18.6271864,2.70014953 15.3495912,7.25673488 L15.1800681,7.48174734 L19.305279,7.48174734 L19.3617129,7.42541122 C22.1872832,4.61281079 25.8039247,3.09394901 29.5900894,3.09394901 C33.376254,3.09394901 37.0493294,4.61281079 39.8183551,7.42541122 L39.8747891,7.48174734 L44,7.48174734 L43.8305875,7.25673488 L43.8305875,7.25673488 Z" id="路径" fill="#E50012"></path>
                        </g>
                    </g>
                </g>
            </g>
        </g>
    </g>
</svg>