<?xml version="1.0" encoding="UTF-8"?>
<svg width="24px" height="16px" viewBox="0 0 24 16" version="1.1" xmlns="http://www.w3.org/2000/svg" xmlns:xlink="http://www.w3.org/1999/xlink">
    <defs>
        <path d="M22,16 L2,16 C0.8954305,16 1.3527075e-16,15.1045695 0,14 L0,2 C-1.3527075e-16,0.8954305 0.8954305,7.69119868e-16 2,5.66213743e-16 L22,5.66213743e-16 C23.1045695,3.63307617e-16 24,0.8954305 24,2 L24,14 C24,15.1045695 23.1045695,16 22,16 Z" id="path-1"></path>
    </defs>
    <g id="页面-1" stroke="none" stroke-width="1" fill="none" fill-rule="evenodd">
        <g id="国旗" transform="translate(-270.000000, -32.000000)">
            <g id="国旗/人民币" transform="translate(270.000000, 32.000000)">
                <g id="中国国旗" transform="translate(0.000000, 0.000000)">
                    <mask id="mask-2" fill="white">
                        <use xlink:href="#path-1"></use>
                    </mask>
                    <use id="路径" fill="#E50012" fill-rule="nonzero" xlink:href="#path-1"></use>
                    <path d="M4.20938407,2.24921541 L4.73068164,3.79803628 L6.41718606,3.79803628 L5.05263628,4.75675483 L5.5731428,6.30715775 L4.20938407,5.34843922 L2.84325221,6.30715775 L3.36454978,4.75675483 L2,3.79803628 L3.68729546,3.79803628 L4.20938407,2.24921541 L4.20938407,2.24921541 Z M8.60600301,1.44 L8.5711971,1.97552183 L9.08616631,2.1732773 L8.54904789,2.30616898 L8.51186885,2.84169081 L8.21522758,2.38764423 L7.67810915,2.52053592 L8.03249657,2.1084135 L7.73585532,1.65515795 L8.25161559,1.85370445 L8.60600301,1.44 L8.60600301,1.44 Z M10.5013429,3.17629308 L10.248209,3.6540703 L10.6397754,4.03376081 L10.0923734,3.94833045 L9.83765749,4.42610767 L9.75301586,3.896123 L9.20403177,3.81069264 L9.69843386,3.56943095 L9.61458327,3.03944628 L10.0045676,3.4191368 L10.5013429,3.17629308 L10.5013429,3.17629308 Z M9.93179166,5.34923023 L10.1010749,5.85943936 L10.6579695,5.86023037 L10.2070747,6.17505709 L10.3787311,6.68526622 L9.9310006,6.36964848 L9.48010589,6.6844752 L9.65255335,6.17505709 L9.20403177,5.85943936 L9.75855316,5.86023037 L9.93179166,5.34923023 L9.93179166,5.34923023 Z M8.60283883,6.98585455 L8.56645083,7.52137637 L9.08221109,7.71992287 L8.54430162,7.85202353 L8.50791363,8.38754536 L8.21206342,7.93428981 L7.67336289,8.06639047 L8.02775031,7.65426805 L7.73110905,7.20022148 L8.24766037,7.399559 L8.60283883,6.98585455 L8.60283883,6.98585455 Z" id="形状" fill="#FFF000" fill-rule="nonzero" mask="url(#mask-2)"></path>
                </g>
            </g>
        </g>
    </g>
</svg>