<?xml version="1.0" encoding="UTF-8"?>
<svg width="24px" height="16px" viewBox="0 0 24 16" version="1.1" xmlns="http://www.w3.org/2000/svg" xmlns:xlink="http://www.w3.org/1999/xlink">
    <defs>
        <linearGradient x1="100%" y1="29.9285428%" x2="0%" y2="72.2222222%" id="linearGradient-1">
            <stop stop-color="#2082F3" offset="0%"></stop>
            <stop stop-color="#F52C70" offset="100%"></stop>
        </linearGradient>
    </defs>
    <g id="页面-1" stroke="none" stroke-width="1" fill="none" fill-rule="evenodd">
        <g id="国旗" transform="translate(-344.000000, -153.000000)">
            <g id="多币种" transform="translate(344.000000, 153.000000)">
                <path d="M22,16 L2,16 C0.8954305,16 1.3527075e-16,15.1045695 0,14 L0,2 C-1.3527075e-16,0.8954305 0.8954305,2.02906125e-16 2,0 L22,0 C23.1045695,-2.02906125e-16 24,0.8954305 24,2 L24,14 C24,15.1045695 23.1045695,16 22,16 Z" fill="url(#linearGradient-1)" fill-rule="nonzero"></path>
                <g id="编组" transform="translate(8.100000, 4.200000)" fill="#FFFFFF">
                    <path d="M0,5.37134201 L0,6.73255395 C0,7.2277542 1.77987269,8 3.9,8 C6.02012731,8 7.8,7.2277542 7.8,6.73255395 L7.8,5.37134201 C6.88985491,5.90657791 5.37316406,6.33978041 3.9,6.33978041 C2.4266183,6.38088653 0.909927455,5.90764838 0,5.37134201 Z" id="路径" fill-rule="nonzero"></path>
                    <path d="M0,2.71117678 L0,4.07238872 C0,4.56758897 1.77987269,5.33983477 3.9,5.33983477 C6.02012731,5.33983477 7.8,4.56758897 7.8,4.07238872 L7.8,2.71117678 C6.88985491,3.24641268 5.37316406,3.67961518 3.9,3.67961518 C2.4266183,3.7207213 0.909927455,3.24748315 0,2.71117678 Z" id="路径" fill-rule="nonzero"></path>
                    <path d="M3.9,0 C1.38654576,0 0,0.822122339 0,1.2789997 C0,1.73587706 1.38654576,2.55778531 3.9,2.55778531 C6.41345424,2.55778531 7.8,1.73566297 7.8,1.2789997 C7.8,0.822336433 6.41323661,0 3.9,0 Z" id="路径"></path>
                </g>
            </g>
        </g>
    </g>
</svg>