<?xml version="1.0" encoding="UTF-8"?>
<svg width="20px" height="20px" viewBox="0 0 20 20" version="1.1" xmlns="http://www.w3.org/2000/svg" xmlns:xlink="http://www.w3.org/1999/xlink">
    <title>侧边栏/交易明细/已选</title>
    <g id="页面-1" stroke="none" stroke-width="1" fill="none" fill-rule="evenodd">
        <g id="PanPay网银规范/图标" transform="translate(-680.000000, -427.000000)">
            <g id="侧边栏/交易明细/已选" transform="translate(680.000000, 427.000000)">
                <rect id="矩形" x="0" y="0" width="20" height="20"></rect>
                <g id="编组-2" transform="translate(1.500000, 1.000000)">
                    <path d="M17,6.25 L17,16.5 C17,17.3284271 16.3284271,18 15.5,18 L13.4362816,18 L13.4362816,18 C12.5126672,18 11.7639298,17.1916252 11.7639298,16.1944444 L11.7639298,6.55555556 C11.7639298,5.55837476 12.5126672,4.75 13.4362816,4.75 L15.5,4.75 C16.3284271,4.75 17,5.42157288 17,6.25 Z" id="路径备份-5" fill="#FFFFFF" fill-rule="nonzero" opacity="0.400000006"></path>
                    <path d="M12.5,0 C13.3284271,-1.52179594e-16 14,0.671572875 14,1.5 L14,18 L1.5,18 C0.671572875,18 1.01453063e-16,17.3284271 0,16.5 L0,1.5 C-1.01453063e-16,0.671572875 0.671572875,1.52179594e-16 1.5,0 L12.5,0 Z M7.5,11.25 L3.5,11.25 C2.94771525,11.25 2.5,11.6977153 2.5,12.25 C2.5,12.8022847 2.94771525,13.25 3.5,13.25 L7.5,13.25 C8.05228475,13.25 8.5,12.8022847 8.5,12.25 C8.5,11.6977153 8.05228475,11.25 7.5,11.25 Z M10.5,4.75 L3.5,4.75 C2.94771525,4.75 2.5,5.19771525 2.5,5.75 C2.5,6.30228475 2.94771525,6.75 3.5,6.75 L10.5,6.75 C11.0522847,6.75 11.5,6.30228475 11.5,5.75 C11.5,5.19771525 11.0522847,4.75 10.5,4.75 Z" id="形状结合" fill="#FFFFFF"></path>
                    <g id="编组-4" transform="translate(2.500000, 4.750000)"></g>
                </g>
            </g>
        </g>
    </g>
</svg>