<?xml version="1.0" encoding="UTF-8"?>
<svg width="24px" height="16px" viewBox="0 0 24 16" version="1.1" xmlns="http://www.w3.org/2000/svg" xmlns:xlink="http://www.w3.org/1999/xlink">
    <defs>
        <path d="M2,0 L22,0 C23.1045695,-2.02906125e-16 24,0.8954305 24,2 L24,14 C24,15.1045695 23.1045695,16 22,16 L2,16 C0.8954305,16 1.3527075e-16,15.1045695 0,14 L0,2 C-1.3527075e-16,0.8954305 0.8954305,2.02906125e-16 2,0 Z" id="path-1"></path>
    </defs>
    <g id="页面-1" stroke="none" stroke-width="1" fill="none" fill-rule="evenodd">
        <g id="国旗" transform="translate(-122.000000, -32.000000)">
            <g id="欧盟" transform="translate(122.000000, 32.000000)">
                <mask id="mask-2" fill="white">
                    <use xlink:href="#path-1"></use>
                </mask>
                <use id="路径" fill="#000098" fill-rule="nonzero" xlink:href="#path-1"></use>
                <path d="M12.0570271,1.64527614 L12.2181226,2.14401694 C12.2275988,2.17224755 12.2465512,2.18165776 12.2749798,2.18165776 L12.796171,2.18165776 C12.8245996,2.18165776 12.8530283,2.20988837 12.8530283,2.24752918 C12.8530283,2.26634959 12.8435521,2.28517 12.8340758,2.2945802 L12.4171229,2.59570672 C12.3981705,2.61452713 12.3886943,2.64275774 12.3981705,2.66157814 L12.5592659,3.16031894 C12.5687421,3.18854955 12.5497897,3.22619037 12.5213611,3.23560057 C12.5024087,3.24501077 12.4834563,3.23560057 12.4645039,3.22619037 L12.0475509,2.91565364 C12.0285985,2.89683324 12.0001699,2.89683324 11.9812175,2.91565364 L11.5642646,3.22619037 C11.5358359,3.24501077 11.4979311,3.23560057 11.4789787,3.20736996 C11.4695025,3.18854955 11.4695025,3.16972914 11.4695025,3.15090874 L11.630598,2.65216794 C11.6400742,2.62393733 11.630598,2.60511692 11.6116456,2.58629651 L11.1946926,2.27575979 C11.166264,2.25693938 11.166264,2.21929857 11.1852164,2.19106796 C11.1946926,2.17224755 11.213645,2.17224755 11.2325974,2.16283735 L11.7537886,2.16283735 C11.7822172,2.16283735 11.8011697,2.14401694 11.8106459,2.12519653 L11.9717413,1.62645574 C11.9906937,1.59822513 12.0285985,1.58881492 12.0570271,1.61704553 C12.0475509,1.63586594 12.0570271,1.63586594 12.0570271,1.64527614 L12.0570271,1.64527614 Z M14.79565,2.39809244 L14.9567455,2.89683324 C14.9662217,2.92506385 14.9851741,2.93447405 15.0136027,2.93447405 L15.5347939,2.93447405 C15.5632225,2.93447405 15.5916511,2.96270466 15.5916511,3.00034548 C15.5916511,3.01916589 15.5821749,3.03798629 15.5726987,3.0473965 L15.1557457,3.35793322 C15.1367933,3.37675363 15.1273171,3.40498424 15.1367933,3.42380464 L15.2978888,3.92254544 C15.307365,3.95077605 15.2884126,3.98841687 15.259984,3.99782707 C15.2410316,4.00723727 15.2220792,3.99782707 15.2031268,3.98841687 L14.7861738,3.67788014 C14.7672214,3.65905974 14.7387928,3.65905974 14.7198404,3.67788014 L14.3028874,3.98841687 C14.2744588,4.00723727 14.236554,3.99782707 14.2176016,3.96959646 C14.2081254,3.95077605 14.2081254,3.93195564 14.2081254,3.91313524 L14.3692208,3.41439444 C14.378697,3.38616383 14.3692208,3.36734342 14.3502684,3.34852301 L13.9238393,3.0473965 C13.8954107,3.02857609 13.8954107,2.99093527 13.9143631,2.96270466 C13.9238393,2.94388426 13.9427917,2.94388426 13.9617441,2.93447405 L14.4829353,2.93447405 C14.5113639,2.93447405 14.5303163,2.91565364 14.5397925,2.89683324 L14.700888,2.39809244 C14.7103642,2.36986183 14.748269,2.35104142 14.7766976,2.36986183 C14.7766976,2.37927203 14.7861738,2.38868224 14.79565,2.39809244 L14.79565,2.39809244 Z M16.7761766,4.40246583 L16.937272,4.90120663 C16.9467482,4.92943724 16.9657006,4.93884744 16.9941293,4.93884744 L17.5153205,4.93884744 C17.5437491,4.93884744 17.5721777,4.96707805 17.5721777,5.00471887 C17.5721777,5.02353927 17.5627015,5.04235968 17.5532253,5.05176989 L17.1362723,5.36230661 C17.1173199,5.38112702 17.1078437,5.40935763 17.1173199,5.42817803 L17.2784154,5.92691883 C17.2878916,5.95514944 17.2689392,5.99279026 17.2405106,6.00220046 C17.2215581,6.01161066 17.2026057,6.00220046 17.1836533,5.99279026 L16.7667004,5.68225353 C16.747748,5.66343313 16.7193193,5.66343313 16.7003669,5.68225353 L16.2739378,5.99279026 C16.2455092,6.01161066 16.2076044,6.00220046 16.1886519,5.97396985 C16.1791757,5.95514944 16.1791757,5.93632903 16.1791757,5.91750863 L16.3402712,5.41876783 C16.3497474,5.39053722 16.3402712,5.37171681 16.3213188,5.3528964 L15.9043658,5.04235968 C15.8759372,5.02353927 15.8759372,4.98589846 15.8948896,4.95766785 C15.9043658,4.93884744 15.9233182,4.93884744 15.9422706,4.92943724 L16.4634619,4.92943724 C16.4918905,4.92943724 16.5108429,4.91061683 16.5203191,4.89179642 L16.6814145,4.39305563 C16.7003669,4.36482502 16.7382718,4.35541481 16.7667004,4.37423522 C16.7667004,4.38364542 16.7667004,4.39305563 16.7761766,4.40246583 L16.7761766,4.40246583 Z M17.496368,7.23493715 L17.6574635,7.73367794 C17.6669397,7.76190855 17.6858921,7.77131876 17.7143207,7.77131876 L18.2355119,7.77131876 C18.2639405,7.77131876 18.2923692,7.79954937 18.2923692,7.83719018 C18.2923692,7.85601059 18.282893,7.874831 18.2734167,7.8842412 L17.8564638,8.19477792 C17.8375114,8.21359833 17.8280352,8.24182894 17.8375114,8.26064935 L17.9986068,8.75939015 C18.008083,8.78762076 17.9891306,8.82526157 17.960702,8.83467178 C17.9417496,8.84408198 17.9227972,8.83467178 17.9038448,8.82526157 L17.4868918,8.51472485 C17.4679394,8.49590444 17.4395108,8.49590444 17.4205584,8.51472485 L17.0036055,8.82526157 C16.9751768,8.84408198 16.937272,8.83467178 16.9183196,8.80644116 C16.9088434,8.78762076 16.9088434,8.76880035 16.9088434,8.74997994 L17.0699389,8.25123915 C17.0794151,8.22300853 17.0699389,8.20418813 17.0509865,8.18536772 L16.6340335,7.874831 C16.6056049,7.85601059 16.6056049,7.81836978 16.6245573,7.79013916 C16.6340335,7.77131876 16.6529859,7.77131876 16.6719383,7.76190855 L17.1836533,7.76190855 C17.2120819,7.76190855 17.2310343,7.74308815 17.2405106,7.72426774 L17.401606,7.22552694 C17.4205584,7.19729633 17.448987,7.18788613 17.4774156,7.19729633 C17.4868918,7.20670653 17.496368,7.21611674 17.496368,7.23493715 L17.496368,7.23493715 Z M16.8140814,9.97330642 L16.9751768,10.4720472 C16.9846531,10.5002778 17.0036055,10.509688 17.0320341,10.509688 L17.5532253,10.509688 C17.5816539,10.509688 17.6100825,10.5379186 17.6100825,10.5755595 C17.6100825,10.5943799 17.6006063,10.6132003 17.5911301,10.6226105 L17.1741771,10.9331472 C17.1552247,10.9519676 17.1457485,10.9801982 17.1552247,10.9990186 L17.3163202,11.4977594 C17.3257964,11.52599 17.306844,11.5636309 17.2784154,11.5730411 C17.259463,11.5824513 17.2405106,11.5730411 17.2215581,11.5636309 L16.8046052,11.2530941 C16.7856528,11.2342737 16.7572242,11.2342737 16.7382718,11.2530941 L16.3213188,11.5636309 C16.2928902,11.5824513 16.2549854,11.5730411 16.236033,11.5448104 C16.2265568,11.52599 16.2265568,11.5071696 16.2265568,11.4883492 L16.3876522,10.9896084 C16.3971284,10.9613778 16.3876522,10.9425574 16.3686998,10.923737 L15.9517469,10.6132003 C15.9233182,10.5943799 15.9233182,10.5567391 15.9422706,10.5285084 C15.9517469,10.509688 15.9706993,10.509688 15.9896517,10.5002778 L16.5108429,10.5002778 C16.5392715,10.5002778 16.5582239,10.4814574 16.5677001,10.462637 L16.7287956,9.96389622 C16.747748,9.93566561 16.7856528,9.92625541 16.8140814,9.94507581 C16.8046052,9.96389622 16.8140814,9.97330642 16.8140814,9.97330642 Z M14.79565,12.0717819 L14.9567455,12.5705226 C14.9662217,12.5987533 14.9851741,12.6081635 15.0136027,12.6081635 L15.5347939,12.6081635 C15.5632225,12.6081635 15.5916511,12.6363941 15.5916511,12.6740349 C15.5916511,12.6928553 15.5821749,12.7116757 15.5726987,12.7210859 L15.1557457,13.0316226 C15.1367933,13.050443 15.1273171,13.0786736 15.1367933,13.0974941 L15.2978888,13.5962349 C15.307365,13.6244655 15.2884126,13.6621063 15.259984,13.6715165 C15.2410316,13.6809267 15.2220792,13.6715165 15.2031268,13.6621063 L14.7861738,13.3515696 C14.7672214,13.3327491 14.7387928,13.3327491 14.7198404,13.3515696 L14.3028874,13.6621063 C14.2744588,13.6809267 14.236554,13.6715165 14.2176016,13.6432859 C14.2081254,13.6244655 14.2081254,13.6056451 14.2081254,13.5868246 L14.3692208,13.0880839 C14.378697,13.0598532 14.3692208,13.0410328 14.3502684,13.0222124 L13.9333155,12.7116757 C13.9048869,12.6928553 13.9048869,12.6552145 13.9238393,12.6269839 C13.9333155,12.6081635 13.9522679,12.6081635 13.9712203,12.5987533 L14.4829353,12.5987533 C14.5113639,12.5987533 14.5303163,12.5799329 14.5397925,12.5611124 L14.700888,12.0623716 C14.7198404,12.034141 14.748269,12.0247308 14.7766976,12.034141 C14.7766976,12.0529614 14.7861738,12.0623716 14.79565,12.0717819 L14.79565,12.0717819 Z M12.0191223,12.7963675 L12.1802178,13.2951083 C12.189694,13.3233389 12.2086464,13.3327491 12.237075,13.3327491 L12.7582662,13.3327491 C12.7866948,13.3327491 12.8151234,13.3609798 12.8151234,13.3986206 C12.8151234,13.417441 12.8056472,13.4362614 12.796171,13.4456716 L12.3792181,13.7562083 C12.3602657,13.7750287 12.3507895,13.8032593 12.3602657,13.8220797 L12.5213611,14.3208205 C12.5308373,14.3490511 12.5118849,14.386692 12.4834563,14.3961022 C12.4645039,14.4055124 12.4455515,14.3961022 12.4265991,14.386692 L12.0096461,14.0761552 C11.9906937,14.0573348 11.9622651,14.0573348 11.9433127,14.0761552 L11.5168835,14.386692 C11.4884549,14.4055124 11.4505501,14.3961022 11.4315977,14.3678716 C11.4221215,14.3490511 11.4221215,14.3302307 11.4221215,14.3114103 L11.583217,13.8126695 C11.5926932,13.7844389 11.583217,13.7656185 11.5642646,13.7467981 L11.1473116,13.4362614 C11.118883,13.417441 11.118883,13.3798002 11.1378354,13.3515696 C11.1473116,13.3327491 11.166264,13.3327491 11.1852164,13.3233389 L11.7064076,13.3233389 C11.7348362,13.3233389 11.7537886,13.3045185 11.7632648,13.2856981 L11.9243603,12.7869573 C11.9433127,12.7587267 11.9812175,12.7493165 12.0096461,12.7681369 C12.0096461,12.7775471 12.0096461,12.7869573 12.0191223,12.7963675 L12.0191223,12.7963675 Z M9.24259466,12.0717819 L9.40369012,12.5705226 C9.41316633,12.5987533 9.43211874,12.6081635 9.46054735,12.6081635 L9.98173855,12.6081635 C10.0101672,12.6081635 10.0385958,12.6363941 10.0385958,12.6740349 C10.0385958,12.6928553 10.0291196,12.7116757 10.0196434,12.7210859 L9.6026904,13.0316226 C9.58373799,13.050443 9.57426179,13.0786736 9.58373799,13.0974941 L9.74483346,13.5962349 C9.75430966,13.6244655 9.73535725,13.6621063 9.70692864,13.6715165 C9.68797623,13.6809267 9.66902383,13.6715165 9.65007142,13.6621063 L9.23311846,13.3515696 C9.21416605,13.3327491 9.18573744,13.3327491 9.16678503,13.3515696 L8.74983207,13.6621063 C8.72140346,13.6809267 8.68349865,13.6715165 8.66454624,13.6432859 C8.65507004,13.6244655 8.65507004,13.6056451 8.65507004,13.5868246 L8.8161655,13.0880839 C8.8256417,13.0598532 8.8161655,13.0410328 8.79721309,13.0222124 L8.38026013,12.7116757 C8.35183152,12.6928553 8.35183152,12.6552145 8.37078393,12.6269839 C8.38026013,12.6081635 8.39921254,12.6081635 8.41816494,12.5987533 L8.93935615,12.5987533 C8.96778476,12.5987533 8.98673716,12.5799329 8.99621337,12.5611124 L9.15730883,12.0623716 C9.17626124,12.034141 9.21416605,12.0247308 9.24259466,12.0435512 C9.23311846,12.0623716 9.23311846,12.0717819 9.24259466,12.0717819 L9.24259466,12.0717819 Z M7.2620681,9.97330642 L7.42316356,10.4720472 C7.43263976,10.5002778 7.45159217,10.509688 7.48002078,10.509688 L8.00121198,10.509688 C8.02964059,10.509688 8.05806921,10.5379186 8.05806921,10.5755595 C8.05806921,10.5943799 8.048593,10.6132003 8.0391168,10.6226105 L7.62216384,10.9331472 C7.60321143,10.9519676 7.59373523,10.9801982 7.60321143,10.9990186 L7.76430689,11.4977594 C7.7737831,11.52599 7.75483069,11.5636309 7.72640208,11.5730411 C7.70744967,11.5824513 7.68849726,11.5730411 7.66954486,11.5636309 L7.25259189,11.2530941 C7.23363949,11.2342737 7.20521088,11.2342737 7.18625847,11.2530941 L6.7598293,11.5636309 C6.73140069,11.5824513 6.69349588,11.5730411 6.67454347,11.5448104 C6.66506727,11.52599 6.66506727,11.5071696 6.66506727,11.4883492 L6.82616273,10.9896084 C6.83563893,10.9613778 6.82616273,10.9425574 6.80721032,10.923737 L6.39025736,10.6132003 C6.36182875,10.5943799 6.36182875,10.5567391 6.38078116,10.5285084 C6.39025736,10.509688 6.40920977,10.509688 6.42816218,10.5002778 L6.94935338,10.5002778 C6.97778199,10.5002778 6.9967344,10.4814574 7.0062106,10.462637 L7.16730606,9.96389622 C7.18625847,9.93566561 7.22416328,9.92625541 7.25259189,9.94507581 C7.24311569,9.96389622 7.25259189,9.96389622 7.2620681,9.97330642 L7.2620681,9.97330642 Z M6.50397181,7.18788613 L6.66506727,7.68662692 C6.67454347,7.71485753 6.69349588,7.72426774 6.72192449,7.72426774 L7.24311569,7.72426774 C7.2715443,7.72426774 7.29997291,7.75249835 7.29997291,7.79013916 C7.29997291,7.80895957 7.29049671,7.82777998 7.28102051,7.83719018 L6.86406754,8.14772691 C6.84511514,8.16654731 6.83563893,8.19477792 6.84511514,8.21359833 L7.0062106,8.71233913 C7.0156868,8.74056974 6.9967344,8.77821055 6.96830578,8.78762076 C6.94935338,8.79703096 6.93040097,8.78762076 6.91144856,8.77821055 L6.4944956,8.46767383 C6.47554319,8.44885342 6.44711458,8.44885342 6.42816218,8.46767383 L6.01120922,8.77821055 C5.9827806,8.79703096 5.94487579,8.78762076 5.92592338,8.75939015 C5.91644718,8.74056974 5.91644718,8.72174933 5.91644718,8.70292892 L6.07754264,8.20418813 C6.08701884,8.17595752 6.07754264,8.15713711 6.05859023,8.1383167 L5.62268487,7.82777998 C5.59425625,7.80895957 5.59425625,7.77131876 5.61320866,7.74308815 C5.62268487,7.72426774 5.64163727,7.72426774 5.66058968,7.71485753 L6.18178088,7.71485753 C6.21020949,7.71485753 6.2291619,7.69603713 6.2386381,7.67721672 L6.39973357,7.17847592 C6.41868597,7.15024531 6.44711458,7.14083511 6.47554319,7.15024531 C6.4944956,7.16906572 6.50397181,7.17847592 6.50397181,7.18788613 L6.50397181,7.18788613 Z M7.2620681,4.40246583 L7.42316356,4.90120663 C7.43263976,4.92943724 7.45159217,4.93884744 7.48002078,4.93884744 L8.00121198,4.93884744 C8.02964059,4.93884744 8.05806921,4.96707805 8.05806921,5.00471887 C8.05806921,5.02353927 8.048593,5.04235968 8.0391168,5.05176989 L7.62216384,5.36230661 C7.60321143,5.38112702 7.59373523,5.40935763 7.60321143,5.42817803 L7.76430689,5.92691883 C7.7737831,5.95514944 7.75483069,5.99279026 7.72640208,6.00220046 C7.70744967,6.01161066 7.68849726,6.00220046 7.66954486,5.99279026 L7.25259189,5.68225353 C7.23363949,5.66343313 7.20521088,5.66343313 7.18625847,5.68225353 L6.7598293,5.99279026 C6.73140069,6.01161066 6.69349588,6.00220046 6.67454347,5.97396985 C6.66506727,5.95514944 6.66506727,5.93632903 6.66506727,5.91750863 L6.82616273,5.41876783 C6.83563893,5.39053722 6.82616273,5.37171681 6.80721032,5.3528964 L6.39025736,5.04235968 C6.36182875,5.02353927 6.36182875,4.98589846 6.38078116,4.95766785 C6.39025736,4.93884744 6.40920977,4.93884744 6.42816218,4.92943724 L6.94935338,4.92943724 C6.97778199,4.92943724 6.9967344,4.91061683 7.0062106,4.89179642 L7.16730606,4.39305563 C7.18625847,4.36482502 7.22416328,4.35541481 7.25259189,4.37423522 C7.24311569,4.38364542 7.25259189,4.39305563 7.2620681,4.40246583 L7.2620681,4.40246583 Z M9.3278805,2.39809244 L9.48897596,2.89683324 C9.49845216,2.92506385 9.51740457,2.93447405 9.54583318,2.93447405 L10.0670244,2.93447405 C10.095453,2.93447405 10.1238816,2.96270466 10.1238816,3.00034548 C10.1238816,3.01916589 10.1144054,3.03798629 10.1049292,3.0473965 L9.68797623,3.35793322 C9.66902383,3.37675363 9.65954762,3.40498424 9.66902383,3.42380464 L9.83011929,3.92254544 C9.83959549,3.95077605 9.82064309,3.98841687 9.79221447,3.99782707 C9.77326207,4.00723727 9.75430966,3.99782707 9.73535725,3.98841687 L9.31840429,3.67788014 C9.29945188,3.65905974 9.27102327,3.65905974 9.25207087,3.67788014 L8.83511791,3.98841687 C8.8161655,4.01664748 8.77826068,4.02605768 8.74983207,4.00723727 C8.72140346,3.98841687 8.71192726,3.95077605 8.73087967,3.92254544 L8.89197513,3.42380464 C8.90145133,3.39557403 8.89197513,3.37675363 8.87302272,3.35793322 L8.44659356,3.0568067 C8.41816494,3.03798629 8.41816494,3.00034548 8.43711735,2.97211487 C8.44659356,2.95329446 8.46554596,2.95329446 8.48449837,2.94388426 L9.00568957,2.94388426 C9.03411818,2.94388426 9.05307059,2.92506385 9.06254679,2.90624344 L9.22364226,2.40750264 C9.23311846,2.37927203 9.27102327,2.36045163 9.29945188,2.36986183 L9.3278805,2.39809244 L9.3278805,2.39809244 Z" id="形状" fill="#FFC911" fill-rule="nonzero" mask="url(#mask-2)"></path>
            </g>
        </g>
    </g>
</svg>