<?xml version="1.0" encoding="UTF-8"?>
<svg width="20px" height="20px" viewBox="0 0 20 20" version="1.1" xmlns="http://www.w3.org/2000/svg" xmlns:xlink="http://www.w3.org/1999/xlink">
    <title>侧边栏/换汇/已选</title>
    <g id="页面-1" stroke="none" stroke-width="1" fill="none" fill-rule="evenodd">
        <g id="PanPay网银规范/图标" transform="translate(-820.000000, -427.000000)">
            <g id="侧边栏/换汇/已选" transform="translate(820.000000, 427.000000)">
                <rect id="矩形" x="0" y="0" width="20" height="20"></rect>
                <g id="编组-5" transform="translate(1.136745, 1.136745)" fill="#FFFFFF">
                    <path d="M4.9944294,0.0514835511 L16.5855393,3.15731209 C17.3857385,3.37172481 17.8606122,4.19423024 17.6461995,4.9944294 L14.5403709,16.5855393 C14.3259582,17.3857385 13.5034528,17.8606122 12.7032536,17.6461995 L1.11214372,14.5403709 C0.311944568,14.3259582 -0.162929166,13.5034528 0.0514835511,12.7032536 L3.15731209,1.11214372 C3.37172481,0.311944568 4.19423024,-0.162929166 4.9944294,0.0514835511 Z M11.7799217,9.52992165 C11.5753717,9.52992165 11.405248,9.67731762 11.369968,9.87169196 L11.369968,9.87169196 L11.363255,9.94658832 L11.3635017,10.6129217 L6.61325498,10.613255 L6.51148443,10.6201016 C6.14540887,10.669764 5.86325498,10.9835592 5.86325498,11.363255 C5.86325498,11.7774685 6.19904142,12.113255 6.61325498,12.113255 L6.61325498,12.113255 L11.3635017,12.1129217 L11.363255,12.7799217 L11.3675388,12.8395197 C11.3732184,12.8788189 11.3844813,12.9170597 11.4009422,12.9530863 L11.4009422,12.9530863 L11.4465883,13.0299217 L11.5037442,13.0920208 C11.6280324,13.2022347 11.8074877,13.2278712 11.9576642,13.1568666 L11.9576642,13.1568666 L12.0299217,13.113255 L13.9188105,11.6965883 L13.9634384,11.6578828 L13.9634384,11.6578828 L14.0021439,11.613255 C14.1229562,11.4521719 14.1094925,11.2320804 13.9809097,11.0870775 L13.9809097,11.0870775 L13.9188105,11.0299217 L12.0299217,9.61325498 L11.9530863,9.56760891 C11.8990465,9.54291755 11.8400245,9.52992165 11.7799217,9.52992165 Z M5.94658832,4.52992165 C5.85643406,4.52992165 5.76871172,4.55916243 5.69658832,4.61325498 L5.69658832,4.61325498 L3.80769943,6.02992165 L3.74560025,6.08707752 C3.61701744,6.23208039 3.60355381,6.45217193 3.72436609,6.61325498 C3.74805537,6.64484068 3.77611373,6.67289905 3.80769943,6.69658832 L3.80769943,6.69658832 L5.69658832,8.11325498 L5.76884572,8.15686655 C5.94405167,8.23970525 6.15910936,8.1910047 6.27992165,8.02992165 L6.27992165,8.02992165 L6.32556772,7.95308627 C6.35025908,7.89904647 6.36325498,7.84002449 6.36325498,7.77992165 L6.36325498,7.77992165 L6.36300824,7.11292165 L11.113255,7.11325498 C11.5274685,7.11325498 11.863255,6.77746855 11.863255,6.36325498 C11.863255,5.94904142 11.5274685,5.61325498 11.113255,5.61325498 L11.113255,5.61325498 L6.36300824,5.61292165 L6.36325498,4.94658832 L6.35654193,4.87169196 C6.32126196,4.67731762 6.15113822,4.52992165 5.94658832,4.52992165 Z" id="形状结合" opacity="0.400000006"></path>
                    <path d="M14.863255,1.36325498 C15.6916821,1.36325498 16.363255,2.03482786 16.363255,2.86325498 L16.363255,14.863255 C16.363255,15.6916821 15.6916821,16.363255 14.863255,16.363255 L2.86325498,16.363255 C2.03482786,16.363255 1.36325498,15.6916821 1.36325498,14.863255 L1.36325498,2.86325498 C1.36325498,2.03482786 2.03482786,1.36325498 2.86325498,1.36325498 L14.863255,1.36325498 Z M11.7799217,9.52992165 C11.5753717,9.52992165 11.405248,9.67731762 11.369968,9.87169196 L11.369968,9.87169196 L11.363255,9.94658832 L11.3635017,10.6129217 L6.61325498,10.613255 L6.51148443,10.6201016 C6.14540887,10.669764 5.86325498,10.9835592 5.86325498,11.363255 C5.86325498,11.7774685 6.19904142,12.113255 6.61325498,12.113255 L6.61325498,12.113255 L11.3635017,12.1129217 L11.363255,12.7799217 L11.3675388,12.8395197 C11.3732184,12.8788189 11.3844813,12.9170597 11.4009422,12.9530863 L11.4009422,12.9530863 L11.4465883,13.0299217 L11.5037442,13.0920208 C11.6280324,13.2022347 11.8074877,13.2278712 11.9576642,13.1568666 L11.9576642,13.1568666 L12.0299217,13.113255 L13.9188105,11.6965883 L13.9634384,11.6578828 L13.9634384,11.6578828 L14.0021439,11.613255 C14.1229562,11.4521719 14.1094925,11.2320804 13.9809097,11.0870775 L13.9809097,11.0870775 L13.9188105,11.0299217 L12.0299217,9.61325498 L11.9530863,9.56760891 C11.8990465,9.54291755 11.8400245,9.52992165 11.7799217,9.52992165 Z M5.94658832,4.52992165 C5.85643406,4.52992165 5.76871172,4.55916243 5.69658832,4.61325498 L5.69658832,4.61325498 L3.80769943,6.02992165 L3.74560025,6.08707752 C3.61701744,6.23208039 3.60355381,6.45217193 3.72436609,6.61325498 C3.74805537,6.64484068 3.77611373,6.67289905 3.80769943,6.69658832 L3.80769943,6.69658832 L5.69658832,8.11325498 L5.76884572,8.15686655 C5.94405167,8.23970525 6.15910936,8.1910047 6.27992165,8.02992165 L6.27992165,8.02992165 L6.32556772,7.95308627 C6.35025908,7.89904647 6.36325498,7.84002449 6.36325498,7.77992165 L6.36325498,7.77992165 L6.36300824,7.11292165 L11.113255,7.11325498 C11.5274685,7.11325498 11.863255,6.77746855 11.863255,6.36325498 C11.863255,5.94904142 11.5274685,5.61325498 11.113255,5.61325498 L11.113255,5.61325498 L6.36300824,5.61292165 L6.36325498,4.94658832 L6.35654193,4.87169196 C6.32126196,4.67731762 6.15113822,4.52992165 5.94658832,4.52992165 Z" id="形状结合"></path>
                </g>
            </g>
        </g>
    </g>
</svg>