<?xml version="1.0" encoding="UTF-8"?>
<svg width="24px" height="16px" viewBox="0 0 24 16" version="1.1" xmlns="http://www.w3.org/2000/svg" xmlns:xlink="http://www.w3.org/1999/xlink">
    <defs>
        <rect id="path-1" x="0" y="0" width="24" height="16" rx="2"></rect>
    </defs>
    <g id="页面-1" stroke="none" stroke-width="1" fill="none" fill-rule="evenodd">
        <g id="国旗" transform="translate(-196.000000, -32.000000)">
            <g id="国旗/英镑" transform="translate(196.000000, 32.000000)">
                <mask id="mask-2" fill="white">
                    <use xlink:href="#path-1"></use>
                </mask>
                <use id="矩形" fill="#D8D8D8" xlink:href="#path-1"></use>
                <g id="英国" mask="url(#mask-2)" fill-rule="nonzero">
                    <polygon id="路径" fill="#00458F" points="0 0 24 0 24 16 0 16"></polygon>
                    <polygon id="路径" fill="#FFFFFF" points="23.9802306 5.59703338 14.3920923 5.59703338 14.3920923 0 9.58813839 0 9.58813839 5.59703338 0 5.59703338 0 10.4029666 9.58813839 10.4029666 9.58813839 16 14.3920923 16 14.3920923 10.4029666 23.9802306 10.4029666"></polygon>
                    <polygon id="路径" fill="#FFFFFF" points="23.9802306 14.1606922 2.7479407 0 0 0 0 1.85908529 21.2125206 16 23.9802306 16"></polygon>
                    <polygon id="路径" fill="#FFFFFF" points="0 14.1606922 21.23229 0 23.9802306 0 23.9802306 1.85908529 2.76771006 16 0 16"></polygon>
                    <polygon id="路径" fill="#CC3440" points="23.9802306 6.60568604 13.383855 6.60568604 13.383855 0 10.5963756 0 10.5963756 6.60568604 0 6.60568604 0 9.39431396 10.5963756 9.39431396 10.5963756 16 13.383855 16 13.383855 9.39431396 23.9802306 9.39431396"></polygon>
                    <path d="M23.9802306,15.960445 L23.9802306,14.6946848 L17.5354201,10.4029666 L15.6375618,10.4029666 L23.9802306,15.960445 Z M23.9802306,0 L22.0823723,0 L14.3920923,5.1223733 L14.3920923,5.59703338 L15.5782537,5.59703338 L23.9802306,0 Z M8.34266886,10.4029666 L0,15.960445 L0,16 L1.81878088,16 L9.58813839,10.8380717 L9.58813839,10.4029666 L8.34266886,10.4029666 Z M0,0 L0,1.26576019 L6.48434926,5.59703338 L8.40197693,5.59703338 L0,0 Z" id="形状" fill="#CC3440"></path>
                </g>
            </g>
        </g>
    </g>
</svg>