<?xml version="1.0" encoding="UTF-8"?>
<svg width="24px" height="16px" viewBox="0 0 24 16" version="1.1" xmlns="http://www.w3.org/2000/svg" xmlns:xlink="http://www.w3.org/1999/xlink">
    <defs>
        <path d="M2,0 L22,0 C23.1045695,-2.02906125e-16 24,0.8954305 24,2 L24,14 C24,15.1045695 23.1045695,16 22,16 L2,16 C0.8954305,16 1.3527075e-16,15.1045695 0,14 L0,2 C-1.3527075e-16,0.8954305 0.8954305,2.02906125e-16 2,0 Z" id="path-1"></path>
    </defs>
    <g id="页面-1" stroke="none" stroke-width="1" fill="none" fill-rule="evenodd">
        <g id="国旗" transform="translate(-344.000000, -32.000000)">
            <g id="国旗/港币" transform="translate(344.000000, 32.000000)">
                <mask id="mask-2" fill="white">
                    <use xlink:href="#path-1"></use>
                </mask>
                <use id="路径" fill="#DE2910" fill-rule="nonzero" xlink:href="#path-1"></use>
                <g id="编组" mask="url(#mask-2)" fill-rule="nonzero">
                    <g transform="translate(6.000000, 2.000000)">
                        <path d="M7.13580932,0.00690917369 C3.69621002,-0.200997757 2.06307492,4.3397442 5.3641024,6.00345459 C5.01652955,5.72594205 4.77368588,5.34470352 4.63465673,4.859739 C4.46087031,4.1664126 4.56514216,3.43851088 4.94747231,2.84936542 L5.01698688,2.88394075 C4.6676634,3.46819806 4.56755344,4.167101 4.73892859,4.82516367 C4.87795774,5.31058313 5.15601602,5.72639699 5.50313155,6.00345459 C4.87795774,5.34470352 5.15555869,4.2701386 6.09354807,3.85432474 C6.71872189,3.57681221 7.20532389,2.43309662 6.75347917,1.70519489 C6.33639174,1.0814741 6.4406636,0.388147703 7.13580932,0.00690917369 L7.13580932,0.00690917369 Z M5.46837426,2.67603382 L5.25983055,2.98812168 L5.19031598,2.60688315 L4.80798583,2.53773249 L5.15555869,2.36440089 L5.1208014,1.98316236 L5.39885969,2.2606749 L5.74643255,2.12191863 L5.57264612,2.46858183 L5.81594712,2.78066969 L5.46837426,2.67648876 L5.46837426,2.67603382 Z" id="形状" fill="#FFFFFF"></path>
                        <path d="M5.67691798,6.14221085 C6.02449083,2.15603902 11.1315252,2.22518969 12,5.65679139 C11.4438834,5.10222126 10.749195,5.2064022 10.2630504,5.79554766 C9.74169109,6.45429872 8.49134346,6.31554245 8.03949875,5.83012299 C7.24053851,4.99804033 6.02449083,5.17137193 5.67691798,6.14221085 Z" id="路径" fill="#FFFFFF"></path>
                        <path d="M9.32460366,4.6864074 L9.49839009,4.3397442 L9.15081723,4.47850047 L8.87275894,4.23601821 L8.87275894,4.61725674 L8.52518608,4.79058833 L8.90751623,4.89476927 L8.9770308,5.2760078 L9.18557451,4.96391993 L9.60266194,4.99849527 L9.32460366,4.6864074 L9.32460366,4.6864074 Z M8.59515799,4.4434702 C7.9004696,4.2701386 7.1705666,4.40889487 6.58015008,4.7901334 C6.05879079,5.13679659 5.71167526,5.62221606 5.60740341,6.17678619 L5.71167526,6.17678619 C5.78118983,5.69136672 6.12876269,5.2064022 6.64966465,4.859739 C7.20578122,4.47850047 7.93522689,4.37431953 8.59515799,4.54765113 L8.59515799,4.4434702 L8.59515799,4.4434702 Z" id="形状" fill="#DE2910"></path>
                        <path d="M5.67691798,6.17678619 C9.60311928,5.27555286 11.0967679,10.1283827 8.10901332,12 C8.45658618,11.2720983 8.1437706,10.6829528 7.44908222,10.4054403 C6.65012198,10.0933524 6.37206369,8.88048616 6.71963655,8.29088576 C7.24099584,7.32050177 6.68487927,6.21136152 5.67737531,6.17633125 L5.67691798,6.17678619 Z" id="路径" fill="#FFFFFF"></path>
                        <path d="M8.35185699,8.94963683 L8.49088613,8.60297363 L8.14331327,8.7417299 L7.86525499,8.46421736 L7.86525499,8.84545589 L7.55243941,9.05336282 L7.90001227,9.15754376 L8.00428413,9.53878229 L8.21282784,9.19211909 L8.59515799,9.22669442 L8.35185699,8.94918189 L8.35185699,8.94963683 Z M8.21282784,8.3950667 C8.17807056,7.7017403 7.8304977,7.04344418 7.27483846,6.59260005 C6.78823646,6.21136152 6.19781993,6.03802992 5.67646064,6.10718058 L5.67646064,6.21136152 C6.16306265,6.14221085 6.75347917,6.31554245 7.20532389,6.69678098 C7.72668317,7.11259484 8.0737987,7.73677057 8.10855599,8.43009697 L8.21282784,8.39552164 L8.21282784,8.3950667 Z" id="形状" fill="#DE2910"></path>
                        <path d="M5.67691798,6.17678619 C7.76144046,9.60838789 3.59239549,12.5545701 0.847484578,10.266684 C1.64644482,10.4054403 2.13304682,9.88544548 2.16780411,9.15754376 C2.20256139,8.3254611 3.27957992,7.66716497 3.9742683,7.80592124 C5.05128683,8.01382817 5.95451893,7.14717018 5.67691798,6.17678619 L5.67691798,6.17678619 Z" id="路径" fill="#FFFFFF"></path>
                        <path d="M4.14805473,8.94963683 L3.76572459,9.08839309 L3.4876663,8.84591083 L3.52242359,9.22714936 L3.17485073,9.40048096 L3.55718087,9.50466189 L3.62669545,9.88590042 L3.83523916,9.57381256 L4.2175693,9.60838789 L3.9742683,9.29630002 L4.14805473,8.94963683 L4.14805473,8.94963683 Z M5.71167526,6.14221085 L5.64216069,6.17678619 C5.88546169,6.62717538 5.88546169,7.21677578 5.67691798,7.77134591 C5.43361698,8.3950667 4.94747231,8.91506149 4.32184116,9.1579987 L4.35659845,9.22714936 C5.01652955,8.94963683 5.53788883,8.43009697 5.78118983,7.77134591 C5.95497626,7.21677578 5.95497626,6.62763032 5.71167526,6.14221085 L5.71167526,6.14221085 Z" id="形状" fill="#DE2910"></path>
                        <path d="M5.64216069,6.17678619 C3.00152163,9.22714936 -1.06325148,6.17678619 0.257068052,2.88394075 C0.396097195,3.68099314 1.02127101,3.99308101 1.75117401,3.78517407 C2.58489154,3.57726714 3.52288092,4.40889487 3.59239549,5.06764593 C3.69666735,6.17678619 4.80844316,6.73135631 5.64216069,6.17678619 L5.64216069,6.17678619 Z" id="路径" fill="#FFFFFF"></path>
                        <path d="M2.27207596,5.27555286 L2.44586239,4.92888966 L2.09828954,5.06764593 L1.78547396,4.7901334 L1.82023125,5.20594726 L1.47265839,5.37927886 L1.85498853,5.48345979 L1.92450311,5.86469832 L2.13304682,5.51803512 L2.51537696,5.58718579 L2.27207596,5.27509792 L2.27207596,5.27555286 Z M5.64216069,6.14221085 C5.29458783,6.48887405 4.70417131,6.69678098 4.11329745,6.66220565 C3.42776045,6.62908748 2.78651526,6.31541242 2.34159054,5.79554766 L2.27207596,5.86469832 C2.72392068,6.41926845 3.38385178,6.73135631 4.07854016,6.76593165 C4.70371397,6.80050698 5.29458783,6.59260005 5.67691798,6.21136152 L5.64216069,6.14221085 Z" id="形状" fill="#DE2910"></path>
                    </g>
                </g>
            </g>
        </g>
    </g>
</svg>