<?xml version="1.0" encoding="UTF-8"?>
<svg width="24px" height="16px" viewBox="0 0 24 16" version="1.1" xmlns="http://www.w3.org/2000/svg" xmlns:xlink="http://www.w3.org/1999/xlink">
    <defs>
        <path d="M2,0 L22,0 C23.1045695,-2.02906125e-16 24,0.8954305 24,2 L24,14 C24,15.1045695 23.1045695,16 22,16 L2,16 C0.8954305,16 1.3527075e-16,15.1045695 0,14 L0,2 C-1.3527075e-16,0.8954305 0.8954305,2.02906125e-16 2,0 Z" id="path-1"></path>
    </defs>
    <g id="页面-1" stroke="none" stroke-width="1" fill="none" fill-rule="evenodd">
        <g id="国旗" transform="translate(-418.000000, -32.000000)">
            <g id="国旗/日元" transform="translate(418.000000, 32.000000)">
                <g id="日本" transform="translate(0.000000, -0.000000)">
                    <mask id="mask-2" fill="white">
                        <use xlink:href="#path-1"></use>
                    </mask>
                    <path stroke="#E1E2E6" stroke-width="0.571428571" d="M22,0.285714286 C22.4733869,0.285714286 22.9019584,0.47759225 23.2121831,0.787816947 C23.5224077,1.09804164 23.7142857,1.52661307 23.7142857,2 L23.7142857,2 L23.7142857,14 C23.7142857,14.4733869 23.5224077,14.9019584 23.2121831,15.2121831 C22.9019584,15.5224077 22.4733869,15.7142857 22,15.7142857 L22,15.7142857 L2,15.7142857 C1.52661307,15.7142857 1.09804164,15.5224077 0.787816947,15.2121831 C0.47759225,14.9019584 0.285714286,14.4733869 0.285714286,14 L0.285714286,14 L0.285714286,2 C0.285714286,1.52661307 0.47759225,1.09804164 0.787816947,0.787816947 C1.09804164,0.47759225 1.52661307,0.285714286 2,0.285714286 L2,0.285714286 Z"></path>
                    <path d="M7,8 C7,10.7614237 9.23857625,13 12,13 C14.7614237,13 17,10.7614237 17,8 C17,5.23857625 14.7614237,3 12,3 C9.23857625,3 7,5.23857625 7,8 Z" id="路径" fill="#C01D3C" fill-rule="nonzero" mask="url(#mask-2)"></path>
                </g>
            </g>
        </g>
    </g>
</svg>