<?xml version="1.0" encoding="UTF-8"?>
<svg width="20px" height="20px" viewBox="0 0 20 20" version="1.1" xmlns="http://www.w3.org/2000/svg" xmlns:xlink="http://www.w3.org/1999/xlink">
    <title>侧边栏/站内信/已选</title>
    <g id="页面-1" stroke="none" stroke-width="1" fill="none" fill-rule="evenodd">
        <g id="PanPay网银规范/图标" transform="translate(-960.000000, -427.000000)">
            <g id="侧边栏/站内信/已选" transform="translate(960.000000, 427.000000)">
                <rect id="矩形" x="0" y="0" width="20" height="20"></rect>
                <g id="站内信" transform="translate(1.500000, 1.000000)" fill="#FFFFFF">
                    <path d="M8.5,18 C9.88071187,18 11,16.8807119 11,15.5 C11,14.1192881 9.88071187,13 8.5,13 C7.11928813,13 6,14.1192881 6,15.5 C6,16.8807119 7.11928813,18 8.5,18 Z" id="椭圆形" opacity="0.400000006"></path>
                    <path d="M8.49892454,1 C11.931231,1 14.7136651,3.78243411 14.7136651,7.21474053 L14.7136651,10.7983732 L14.7136651,10.7983732 L15.9515774,13.3440202 C16.313865,14.0890297 16.0036076,14.9866714 15.2585981,15.348959 C15.0542048,15.4483527 14.8298973,15.5 14.6026183,15.5 L2.39639546,15.5 C1.56796833,15.5 0.896395456,14.8284271 0.896395456,14 C0.896395456,13.7729084 0.947957681,13.548781 1.04719375,13.3445194 L2.284184,10.7983732 L2.284184,10.7983732 L2.284184,7.21474053 C2.284184,3.78243411 5.06661812,1 8.49892454,1 Z" id="矩形"></path>
                    <path d="M8.5,0 C9.05228475,-1.01453063e-16 9.5,0.44771525 9.5,1 L9.5,2 L9.5,2 L7.5,2 L7.5,1 C7.5,0.44771525 7.94771525,1.01453063e-16 8.5,0 Z" id="矩形"></path>
                </g>
            </g>
        </g>
    </g>
</svg>