<?xml version="1.0" encoding="UTF-8"?>
<svg width="24px" height="16px" viewBox="0 0 24 16" version="1.1" xmlns="http://www.w3.org/2000/svg" xmlns:xlink="http://www.w3.org/1999/xlink">
    <g id="页面-1" stroke="none" stroke-width="1" fill="none" fill-rule="evenodd">
        <g id="国旗" transform="translate(-122.000000, -153.000000)">
            <g id="编组-8" transform="translate(122.000000, 153.000000)">
                <rect id="矩形" fill="#EF2A2D" x="0" y="0" width="24" height="16" rx="2"></rect>
                <path d="M10.5,0 L10.5,5.999 L24,6 L24,10 L10.5,9.999 L10.5,16 L6.5,16 L6.5,9.999 L0,10 L0,6 L6.5,5.999 L6.5,0 L10.5,0 Z" id="形状结合" fill="#FFFFFF"></path>
                <path d="M9.5,4.26325641e-14 L9.5,6.999 L24,7 L24,9 L9.499,8.999 L9.5,16 L7.5,16 L7.499,8.999 L0,9 L0,7 L7.5,6.999 L7.5,4.26325641e-14 L9.5,4.26325641e-14 Z" id="形状结合" fill="#002768"></path>
            </g>
        </g>
    </g>
</svg>