<?xml version="1.0" encoding="UTF-8"?>
<svg width="24px" height="16px" viewBox="0 0 24 16" version="1.1" xmlns="http://www.w3.org/2000/svg" xmlns:xlink="http://www.w3.org/1999/xlink">
    <defs>
        <path d="M2,0 L22,0 C23.1045695,-2.02906125e-16 24,0.8954305 24,2 L24,14 C24,15.1045695 23.1045695,16 22,16 L2,16 C0.8954305,16 1.3527075e-16,15.1045695 0,14 L0,2 C-1.3527075e-16,0.8954305 0.8954305,2.02906125e-16 2,0 Z" id="path-1"></path>
    </defs>
    <g id="页面-1" stroke="none" stroke-width="1" fill="none" fill-rule="evenodd">
        <g id="国旗" transform="translate(-196.000000, -78.000000)">
            <g id="国旗/新西兰元" transform="translate(196.000000, 78.000000)">
                <g id="新西兰" transform="translate(-0.000000, 0.000000)">
                    <mask id="mask-2" fill="white">
                        <use xlink:href="#path-1"></use>
                    </mask>
                    <use id="路径" fill="#200573" fill-rule="nonzero" xlink:href="#path-1"></use>
                    <g id="编组-6" mask="url(#mask-2)">
                        <g transform="translate(-0.000000, 0.000000)">
                            <g id="编组" stroke-width="1" fill="none" fill-rule="evenodd" transform="translate(-0.000000, 0.000000)">
                                <polygon id="路径" fill="#FFFFFF" fill-rule="nonzero" points="1.4657835 1.66533454e-16 4.56644903 2.041875 4.56644903 1.66533454e-16 7.24834407 1.66533454e-16 7.24834407 2.041875 10.3490096 0 11.8469941 0 11.8469941 0.981046875 9.39061633 2.59221875 11.8469941 2.59221875 11.8469941 5.21634375 9.39061633 5.21634375 11.8469941 6.86739063 11.8469941 7.84845313 10.3490096 7.84845313 7.24834407 5.78264063 7.24834407 7.84845313 4.56646481 7.84845313 4.56646481 5.78264063 1.46579928 7.84845313 -2.34479103e-14 7.84845313 -2.34479103e-14 6.86739063 2.42414521 5.21634375 3.15541192e-05 5.21634375 3.15541192e-05 2.59221875 2.42417677 2.59221875 3.15541192e-05 0.973078125 3.15541192e-05 1.66533454e-16"></polygon>
                                <polygon id="形状" fill="#E60012" fill-rule="nonzero" points="6.70873707 3.12660937 6.70873707 0 5.09799395 0 5.09799395 3.12660937 1.57770596e-05 3.12660937 1.57770596e-05 4.68992187 5.10605602 4.68992187 5.10605602 7.84845312 6.71679915 7.84845312 6.71679915 4.68992187 11.8469783 4.68992187 11.8469783 3.12660937"></polygon>
                            </g>
                            <path d="M4.56646481,5.41575 L4.56646481,5.21632813 L3.91411495,5.21632813 L1.57770596e-05,7.84845313 L0.934238586,7.84845313 L4.56646481,5.41575 L4.56646481,5.41575 Z M7.24834407,2.40079688 L7.24834407,2.6001875 L7.90069393,2.6001875 L11.8470099,0 L10.8886008,0 L7.24834407,2.40078125 L7.24834407,2.40079688 Z M1.57770596e-05,0.614140625 L2.98793844,2.60017187 L3.91411495,2.60017187 L1.57770596e-05,0 L1.57770596e-05,0.614140625 Z M7.89263185,5.21632813 L11.838932,7.84046875 L11.838932,7.19440625 L8.82685466,5.21632813 L7.89263185,5.21632813 L7.89263185,5.21632813 Z" id="形状" fill="#E60012" fill-rule="nonzero"></path>
                        </g>
                    </g>
                    <g id="编组-7" mask="url(#mask-2)">
                        <g transform="translate(13.063090, 1.268203)">
                            <g id="编组-3" transform="translate(3.543622, 0.000000)">
                                <polygon id="路径" fill="#E60012" fill-rule="nonzero" points="1.35302486 0.287125 1.61074313 0.981046875 2.43222307 0.981046875 1.76374905 1.46757813 2.0214831 2.24126563 1.35302486 1.84246875 0.684566617 2.32103125 0.942284886 1.54734375 0.273826647 1.0608125 1.09530659 1.0608125"></polygon>
                                <path d="M2.19061318,2.55232812 L1.35302486,1.94615625 L0.515436538,2.54435937 L0.837588319,1.57128125 L0,0.973078125 L1.03087308,0.973078125 L1.35302486,1.97372982e-16 L1.67517664,0.973078125 L2.70604971,0.973078125 L1.86846139,1.57128125 L2.19061318,2.55232812 L2.19061318,2.55232812 Z M1.35302486,1.73079688 L1.85235302,2.08971875 L1.65906826,1.50746875 L2.15839642,1.14854688 L1.53826331,1.14854688 L1.34496278,0.566296875 L1.1516938,1.14854688 L0.547653294,1.14854688 L1.04699723,1.50746875 L0.853696697,2.08971875 L1.35302486,1.7308125 L1.35302486,1.73079688 Z" id="形状" fill="#FFFFFF" fill-rule="nonzero"></path>
                            </g>
                            <g id="编组-5" transform="translate(3.543622, 9.595203)">
                                <polygon id="路径" fill="#E60012" fill-rule="nonzero" points="1.35302486 0.287140625 1.61074313 1.06082812 2.43222307 1.06082812 1.76374905 1.53939062 2.0214831 2.32104687 1.35302486 1.8345 0.684566617 2.32104687 0.942284886 1.53939062 0.273826647 1.06082812 1.09530659 1.06082812"></polygon>
                                <path d="M2.19061318,2.544375 L1.35302486,1.94617188 L0.515436538,2.544375 L0.837588319,1.57129688 L2.68229883e-14,0.973078125 L1.03087308,0.973078125 L1.35302486,5.32907052e-16 L1.67517664,0.973078125 L2.70604971,0.973078125 L1.86846139,1.57129688 L2.19061318,2.544375 L2.19061318,2.544375 Z M1.35302486,1.7308125 L1.85235302,2.08971875 L1.65906826,1.50746875 L2.15839642,1.14854688 L1.53826331,1.14854688 L1.34496278,0.56628125 L1.1516938,1.14854688 L0.547653294,1.14854688 L1.04699723,1.50745313 L0.853696697,2.08971875 L1.35302486,1.73079688 L1.35302486,1.7308125 Z" id="形状" fill="#FFFFFF" fill-rule="nonzero"></path>
                            </g>
                            <g id="编组-4" transform="translate(6.918130, 2.903297)">
                                <polygon id="路径" fill="#E60012" fill-rule="nonzero" points="1.19998738 0.279140625 1.41744259 0.949140625 2.12616389 0.949140625 1.55435591 1.35592187 1.77181113 2.02592187 1.19998738 1.61115625 0.628179406 2.02590625 0.845634619 1.35590625 0.273826647 0.949140625 0.982532165 0.949140625"></polygon>
                                <path d="M1.94094121,2.25721875 L1.19998738,1.7228125 L0.459049327,2.25721875 L0.740938051,1.3958125 L-4.1033843e-14,0.86140625 L0.918114431,0.86140625 L1.19998738,-3.55271368e-16 L1.4818761,0.86140625 L2.39999053,0.86140625 L1.65905248,1.39579687 L1.94094121,2.25721875 L1.94094121,2.25721875 Z M0.547637517,1.036875 L0.950331187,1.32401562 L0.797309485,1.79460937 L1.19998738,1.50746875 L1.60268105,1.79460937 L1.44964357,1.32401562 L1.85233724,1.036875 L1.35300908,1.036875 L1.19998738,0.56628125 L1.04698145,1.036875 L0.547637517,1.036875 L0.547637517,1.036875 Z" id="形状" fill="#FFFFFF" fill-rule="nonzero"></path>
                            </g>
                            <g id="编组-2" transform="translate(0.000000, 3.948141)">
                                <polygon id="路径" fill="#E60012" fill-rule="nonzero" points="1.20000316 0.287140625 1.41745837 0.949171875 2.12616389 0.949171875 1.55435591 1.36390625 1.77181113 2.02590625 1.20000316 1.61914062 0.628195183 2.02590625 0.845634619 1.36390625 0.273826647 0.949140625 0.982547943 0.949140625"></polygon>
                                <path d="M0.459065104,2.25725 L0.740938051,1.3958125 L0,0.8614375 L0.918114431,0.8614375 L1.20000316,0 L1.4818761,0.861421875 L2.40000631,0.861421875 L1.65906826,1.3958125 L1.94094121,2.25725 L1.20000316,1.72284375 L0.459065104,2.25725 L0.459065104,2.25725 Z M1.20000316,1.50748437 L1.60268105,1.794625 L1.44965935,1.32403125 L1.85235302,1.03689062 L1.35300908,1.03689062 L1.20000316,0.5663125 L1.04698145,1.03689062 L0.547637517,1.03689062 L0.950331187,1.32403125 L0.797309485,1.794625 L1.20000316,1.50748437 L1.20000316,1.50748437 Z" id="形状" fill="#FFFFFF" fill-rule="nonzero"></path>
                            </g>
                        </g>
                    </g>
                </g>
            </g>
        </g>
    </g>
</svg>