<?xml version="1.0" encoding="UTF-8"?>
<svg width="20px" height="20px" viewBox="0 0 20 20" version="1.1" xmlns="http://www.w3.org/2000/svg" xmlns:xlink="http://www.w3.org/1999/xlink">
    <title>侧边栏/付款/未选</title>
    <g id="页面-1" stroke="none" stroke-width="1" fill="none" fill-rule="evenodd">
        <g id="PanPay网银规范/图标" transform="translate(-540.000000, -377.000000)">
            <g id="侧边栏/付款/未选" transform="translate(540.000000, 377.000000)">
                <rect id="矩形" x="0" y="0" width="20" height="20"></rect>
                <g id="侧边栏/付款" transform="translate(1.000000, 2.000000)">
                    <path d="M1.12758071,3.29926331 L12.7259447,0.326546546 C13.455027,0.13967922 14.2097069,0.522043 14.4902595,1.22044881 L15.5293057,3.8070436 C15.8381048,4.57576628 15.4652632,5.44927034 14.6965405,5.75806953 C14.3506147,5.89702941 13.9653391,5.9021968 13.6158109,5.77256449 L13.0238571,5.55302188 L13.0238571,5.55302188 L1.87776958,8.45361801 C1.07604496,8.66225439 0.256985544,8.18146137 0.0483491658,7.37973676 C0.0162473148,7.25637934 2.37654688e-16,7.12943318 0,7.00196718 L0,4.75229595 C3.60202164e-16,4.06730624 0.464039097,3.46933223 1.12758071,3.29926331 Z" id="矩形" fill="#C4C6CC"></path>
                    <path d="M2.00308139,3.49987892 L16.2733813,3.52186515 C17.2269665,3.52186515 18,4.28722525 18,5.23134478 L17.999,7.24987655 L13.5,7.25 C12.1745166,7.25 11.0899613,8.28153594 11.0053177,9.58562431 L11,9.75 C11,11.1307119 12.1192881,12.25 13.5,12.25 L13.5,12.25 L17.999,12.2498766 L17.9994245,14.2873131 C17.9994245,15.2314327 17.2263909,15.9967928 16.2728058,15.9967928 L1.72661871,15.9967928 C0.773033525,15.9967928 0,15.2314327 0,14.2873131 L0,5.49987655 C-1.3527075e-16,4.39530705 0.8954305,3.49987655 2,3.49987655 L2.00308139,3.49987892 Z" id="形状结合" fill="#797D85" fill-rule="nonzero"></path>
                    <path d="M13.75,11.25 C14.5784271,11.25 15.25,10.5784271 15.25,9.75 C15.25,8.92157288 14.5784271,8.25 13.75,8.25 C12.9215729,8.25 12.25,8.92157288 12.25,9.75 C12.25,10.5784271 12.9215729,11.25 13.75,11.25 Z" id="椭圆形" fill="#C4C6CC"></path>
                </g>
            </g>
        </g>
    </g>
</svg>