<?xml version="1.0" encoding="UTF-8"?>
<svg width="20px" height="20px" viewBox="0 0 20 20" version="1.1" xmlns="http://www.w3.org/2000/svg" xmlns:xlink="http://www.w3.org/1999/xlink">
    <title>侧边栏/充值/已选</title>
    <g id="页面-1" stroke="none" stroke-width="1" fill="none" fill-rule="evenodd">
        <g id="PanPay网银规范/图标" transform="translate(-750.000000, -427.000000)">
            <g id="侧边栏/充值/已选" transform="translate(750.000000, 427.000000)">
                <rect id="矩形" x="0" y="0" width="20" height="20"></rect>
                <g id="编组" transform="translate(1.000000, 2.000000)" fill="#FFFFFF">
                    <path d="M1.12758071,3.29926331 L12.7270854,0.32625417 C13.4556767,0.139512685 14.2099198,0.521234374 14.4909032,1.21892062 L15.8991598,4.71564511 C16.2086415,5.48409327 15.8365757,6.35792808 15.0681276,6.66740978 C14.7739228,6.78589663 14.4497319,6.80807794 14.1421305,6.73076697 L10.5660374,5.83196997 L10.5660374,5.83196997 L1.98482072,8.76284991 C1.20085863,9.030609 0.348270148,8.61214379 0.080511055,7.82818169 C0.0272020459,7.67210018 -4.23890597e-16,7.50829516 0,7.34336097 L0,4.75229595 C5.82246769e-16,4.06730624 0.464039097,3.46933223 1.12758071,3.29926331 Z" id="矩形" opacity="0.400000006"></path>
                    <path d="M1.60222865,3.50223176 L16.5020203,3.52298582 C17.3296578,3.52413864 17.9999691,4.19541525 17.9999309,5.02305357 L17.9994937,14.5 C17.9993862,15.3284001 17.3278246,15.9999308 16.4994245,16 L1.6,16 C0.7163444,16 5.5230581e-16,15.2836556 0,14.4 L0,5.10223021 C1.13828005e-16,4.21857461 0.7163444,3.50223021 1.6,3.50223021 L1.60222865,3.50223176 Z M12.3032254,6.97572012 C11.9308309,6.64649788 11.3620582,6.68149591 11.032836,7.05389041 L11.032836,7.05389041 L7.966,10.521 L6.92971795,9.43907013 L6.83927797,9.35659259 C6.49227192,9.08070374 5.98613752,9.09684756 5.65721064,9.41214154 C5.29838133,9.7560986 5.28632498,10.3258195 5.63028205,10.6846488 L5.63028205,10.6846488 L7.34431023,12.4727894 L7.43251379,12.5535168 C7.80100588,12.8486091 8.34650217,12.8101152 8.66830806,12.4461096 L8.66830806,12.4461096 L12.3813957,8.24610959 L12.4561289,8.14917203 C12.7024419,7.78058319 12.644587,7.27750717 12.3032254,6.97572012 Z" id="形状结合" fill-rule="nonzero"></path>
                </g>
            </g>
        </g>
    </g>
</svg>