<?xml version="1.0" encoding="UTF-8"?>
<svg width="20px" height="20px" viewBox="0 0 20 20" version="1.1" xmlns="http://www.w3.org/2000/svg" xmlns:xlink="http://www.w3.org/1999/xlink">
    <title>侧边栏/充值/未选</title>
    <g id="页面-1" stroke="none" stroke-width="1" fill="none" fill-rule="evenodd">
        <g id="PanPay网银规范/图标" transform="translate(-750.000000, -377.000000)">
            <g id="侧边栏/充值/未选" transform="translate(750.000000, 377.000000)">
                <rect id="矩形" x="0" y="0" width="20" height="20"></rect>
                <g id="侧边栏/付款备份" transform="translate(1.000000, 1.000000)">
                    <rect id="矩形" x="0" y="0" width="18" height="18"></rect>
                    <g id="编组" transform="translate(0.000000, 1.000000)">
                        <path d="M1.12758071,3.29926331 L12.7270854,0.32625417 C13.4556767,0.139512685 14.2099198,0.521234374 14.4909032,1.21892062 L16.2663532,5.6273923 C16.5758349,6.39584046 16.2037691,7.26967527 15.4353209,7.57915697 C15.3116586,7.62896026 15.1819087,7.66205563 15.0494998,7.67756855 L1.6745451,9.24456889 C0.851745729,9.34096749 0.106588542,8.75210331 0.0101899428,7.92930394 C0.00340242601,7.87136985 -1.87604679e-17,7.81308917 0,7.75475883 L0,4.75229595 C5.82246769e-16,4.06730624 0.464039097,3.46933223 1.12758071,3.29926331 Z" id="矩形" fill="#C4C6CC"></path>
                        <path d="M17.9999309,5.02305357 L17.9994937,14.5 C17.9993862,15.3284001 17.3278246,15.9999308 16.4994245,16 L1.6,16 C0.7163444,16 5.5230581e-16,15.2836556 0,14.4 L0,5.10223021 C1.13828005e-16,4.21857461 0.7163444,3.50223021 1.6,3.50223021 C1.60074288,3.50223021 1.60148577,3.50223072 1.60222865,3.50223176 L16.5020203,3.52298582 C17.3296578,3.52413864 17.9999691,4.19541525 17.9999309,5.02305357 Z" id="路径" fill="#797D85" fill-rule="nonzero"></path>
                        <polyline id="路径-3" stroke="#FFFFFF" stroke-width="1.8" stroke-linecap="round" stroke-linejoin="round" points="6.28 10.0618595 7.99402818 11.85 11.7071158 7.65"></polyline>
                    </g>
                </g>
            </g>
        </g>
    </g>
</svg>