<?xml version="1.0" encoding="UTF-8"?>
<svg width="20px" height="20px" viewBox="0 0 20 20" version="1.1" xmlns="http://www.w3.org/2000/svg" xmlns:xlink="http://www.w3.org/1999/xlink">
    <title>侧边栏/交易对手/未选</title>
    <g id="页面-1" stroke="none" stroke-width="1" fill="none" fill-rule="evenodd">
        <g id="PanPay网银规范/图标" transform="translate(-610.000000, -377.000000)">
            <g id="侧边栏/交易对手/未选" transform="translate(610.000000, 377.000000)">
                <rect id="矩形" x="0" y="0" width="20" height="20"></rect>
                <g id="我的-我的" transform="translate(1.000000, 1.000000)">
                    <path d="M8.99999999,8.4968727 C11.3423473,8.4968727 13.25,6.58922001 13.25,4.24687269 C13.25,1.90452538 11.3423473,0 8.99999999,0 C6.65765268,0 4.75,1.90765269 4.75,4.24999999 C4.75,6.59234729 6.65765269,8.4968727 8.99999999,8.4968727 L8.99999999,8.4968727 Z" id="路径" fill="#C3C6CC" fill-rule="nonzero"></path>
                    <path d="M8.99999999,8.4968727 C11.3423473,8.4968727 13.25,6.58922001 13.25,4.24687269 C13.25,1.90452538 11.3423473,0 8.99999999,0 C6.65765268,0 4.75,1.90765269 4.75,4.24999999 C4.75,6.59234729 6.65765269,8.4968727 8.99999999,8.4968727 L8.99999999,8.4968727 Z" id="路径" fill="#C3C6CC" fill-rule="nonzero"></path>
                    <path d="M17.5150015,13.264574 C17.6591902,13.5695067 17.7588115,14.0076874 17.8453248,14.5919283 C17.8898922,14.8891736 17.9265948,15.2043562 17.9580542,15.5195388 C17.9685406,15.6297245 17.9790271,15.7322229 17.9868919,15.8244715 C17.9921352,15.8808456 17.9947568,15.921845 17.9973784,15.9449071 L18,16.0012812 C18,17.103139 17.0850568,18 15.9577629,18 L2.04223711,18 C0.914943198,18 0,17.103139 0,16.0012812 L0.00262161375,15.9449071 C0.0052432275,15.921845 0.00786484125,15.8808456 0.0131080687,15.8244715 C0.02097291,15.7322229 0.0288377512,15.6297245 0.04194582,15.5195388 C0.073405185,15.2043562 0.110107777,14.8891736 0.154675211,14.5919283 C0.241188465,14.0076874 0.343431401,13.5695067 0.484998544,13.264574 C1.11156423,11.9295324 5.7387125,10 8.99737839,10 C12.2560443,10 16.8858142,11.9295324 17.5150015,13.264574 Z" id="路径" fill="#696C73"></path>
                </g>
            </g>
        </g>
    </g>
</svg>