<?xml version="1.0" encoding="UTF-8"?>
<svg width="20px" height="20px" viewBox="0 0 20 20" version="1.1" xmlns="http://www.w3.org/2000/svg" xmlns:xlink="http://www.w3.org/1999/xlink">
    <title>侧边栏/结汇/已选</title>
    <g id="页面-1" stroke="none" stroke-width="1" fill="none" fill-rule="evenodd">
        <g id="PanPay网银规范/图标" transform="translate(-890.000000, -427.000000)">
            <g id="侧边栏/结汇/已选" transform="translate(890.000000, 427.000000)">
                <rect id="矩形" x="0" y="0" width="20" height="20"></rect>
                <g id="侧边栏/结汇">
                    <rect id="矩形" x="0" y="0" width="20" height="20"></rect>
                    <path d="M17,4 L17,17.0507144 C17,17.8791416 16.3284271,18.5507144 15.5,18.5507144 C15.2281341,18.5507144 14.9613795,18.4768277 14.7282564,18.3369538 L10,15.5 L5.27174363,18.3369538 C4.56137323,18.7631761 3.63998285,18.5328285 3.21376061,17.8224581 C3.07388675,17.589335 3,17.3225804 3,17.0507144 L3,4 L17,4 Z M8.20947962,6.39337546 L8.12405533,6.46477986 C7.88374972,6.70531218 7.88386634,7.09508765 8.12431585,7.33547612 L9.20978922,8.42067391 L7.98565109,8.33583456 C7.64559524,8.33597508 7.37,8.61168423 7.37,8.95174012 C7.37,9.29176626 7.64564565,9.56741192 7.9856718,9.56741192 L9.4793282,9.56741192 L9.4293282,10.4601982 L7.9856718,10.4101982 C7.64564565,10.4101982 7.37,10.6858439 7.37,11.02587 C7.37,11.3658962 7.64564565,11.6415419 7.9856718,11.6415419 L9.4793282,11.6415419 L9.4293282,12.5343282 C9.4293282,12.8743543 9.70497385,13.15 10.045,13.15 C10.3850261,13.15 10.6606718,12.8743543 10.6606718,12.5343282 L10.6606718,11.5915419 L12.1043282,11.6415419 C12.4443543,11.6415419 12.72,11.3658962 12.72,11.02587 C12.72,10.6858439 12.4443543,10.4101982 12.1043282,10.4101982 L10.6106718,10.4101982 L10.6606718,9.51741192 L12.1043282,9.56741192 C12.4443543,9.56741192 12.72,9.29176626 12.72,8.95174012 C12.72,8.61171397 12.4443543,8.33606831 12.1043282,8.33606831 L10.8448599,8.33606831 L11.9661165,7.3355224 C12.1772845,7.12435444 12.2054365,6.79324705 12.0372758,6.55050553 L11.9689357,6.46842882 C11.7253661,6.22480512 11.3355849,6.22487227 11.0951225,6.46527364 L10.0096491,7.55047145 L8.99445409,6.46457468 C8.78085645,6.25097703 8.44929209,6.22724396 8.20947962,6.39337546 Z" id="形状结合" fill="#FFFFFF"></path>
                    <path d="M2.5,1 L17.5,1 C18.3284271,1 19,1.67157288 19,2.5 C19,3.32842712 18.3284271,4 17.5,4 L2.5,4 C1.67157288,4 1,3.32842712 1,2.5 C1,1.67157288 1.67157288,1 2.5,1 Z" id="矩形备份" fill="#FFFFFF" opacity="0.400000006"></path>
                </g>
            </g>
        </g>
    </g>
</svg>