<?xml version="1.0" encoding="UTF-8"?>
<svg width="24px" height="16px" viewBox="0 0 24 16" version="1.1" xmlns="http://www.w3.org/2000/svg" xmlns:xlink="http://www.w3.org/1999/xlink">
    <defs>
        <rect id="path-1" x="0" y="0" width="24" height="16" rx="2"></rect>
    </defs>
    <g id="页面-1" stroke="none" stroke-width="1" fill="none" fill-rule="evenodd">
        <g id="国旗" transform="translate(-270.000000, -78.000000)">
            <g id="国旗/新加坡元" transform="translate(270.000000, 78.000000)">
                <mask id="mask-2" fill="white">
                    <use xlink:href="#path-1"></use>
                </mask>
                <rect stroke="#E1E2E6" stroke-width="0.571428571" x="0.285714286" y="0.285714286" width="23.4285714" height="15.4285714" rx="2"></rect>
                <g id="新加坡" mask="url(#mask-2)" fill-rule="nonzero">
                    <polygon id="路径" fill="#E24654" points="0 0 24 0 24 8 0 8"></polygon>
                    <path d="M3.64232978,4.02948403 C3.64232978,2.77149878 4.390484,1.6904177 5.45365053,1.17936117 C5.23707957,1.14004914 5.02050862,1.10073709 4.80393766,1.10073709 C3.18949959,1.10073709 1.87038556,2.41769042 1.87038556,4.02948403 C1.87038556,5.64127765 3.18949959,6.93857493 4.78424938,6.93857493 C5.00082034,6.93857493 5.23707957,6.91891891 5.43396226,6.85995087 C4.390484,6.36855037 3.64232978,5.2874693 3.64232978,4.02948403 L3.64232978,4.02948403 Z M6.81214109,1.67076167 L6.98933552,2.18181818 L7.54060704,2.18181818 L7.08777686,2.51597052 L7.26497128,3.02702703 L6.81214109,2.71253071 L6.37899918,3.02702703 L6.53650533,2.51597052 L6.1033634,2.18181818 L6.65463494,2.18181818 L6.81214109,1.67076167 Z M8.44626744,2.86977887 L8.62346185,3.4004914 L9.17473338,3.4004914 L8.7219032,3.71498771 L8.89909762,4.24570025 L8.44626744,3.91154791 L7.99343725,4.24570025 L8.17063166,3.71498771 L7.71780147,3.4004914 L8.26907301,3.4004914 L8.44626744,2.86977887 Z" id="形状" fill="#FFFFFF"></path>
                    <path d="M5.1583265,2.86977887 L5.33552092,3.4004914 L5.88679245,3.4004914 L5.43396226,3.71498771 L5.61115668,4.24570025 L5.1583265,3.91154791 L4.72518458,4.24570025 L4.90237899,3.71498771 L4.4495488,3.4004914 L5.00082034,3.4004914 L5.1583265,2.86977887 Z M7.81624282,4.81572481 L7.99343725,5.32678133 L8.54470877,5.32678133 L8.09187858,5.66093366 L8.26907301,6.17199018 L7.81624282,5.85749386 L7.38310091,6.17199018 L7.54060704,5.66093366 L7.10746513,5.32678133 L7.65873667,5.32678133 L7.81624282,4.81572481 Z M5.80803937,4.81572481 L5.96554552,5.32678133 L6.51681706,5.32678133 L6.08367515,5.66093366 L6.2411813,6.17199018 L5.80803937,5.85749386 L5.35520918,6.17199018 L5.53240361,5.66093366 L5.07957342,5.32678133 L5.63084496,5.32678133 L5.80803937,4.81572481 Z" id="形状" fill="#FFFFFF"></path>
                </g>
            </g>
        </g>
    </g>
</svg>