<?xml version="1.0" encoding="UTF-8"?>
<svg width="28px" height="28px" viewBox="0 0 28 28" version="1.1" xmlns="http://www.w3.org/2000/svg" xmlns:xlink="http://www.w3.org/1999/xlink">
    <title>企业未选</title>
    <g id="页面-1" stroke="none" stroke-width="1" fill="none" fill-rule="evenodd">
        <g id="PanPay网银规范/图标" transform="translate(-704.000000, -1056.000000)">
            <g id="企业未选" transform="translate(704.000000, 1056.000000)">
                <circle id="椭圆形" fill="#DCDDE0" cx="14" cy="14" r="14"></circle>
                <g id="编组-10" transform="translate(6.000000, 7.000000)">
                    <path d="M7.82227247,4.18798947 L13.1300166,3.53399245 C13.6851693,3.46558896 14.1906615,3.86017716 14.2590649,4.41532987 C14.264128,4.45642084 14.2666667,4.49778361 14.2666667,4.53918534 L14.2666667,13.3333333 L14.2666667,13.3333333 L6.93333333,13.3333333 L6.93333333,5.19318236 C6.93333333,4.68172822 7.31465715,4.25053561 7.82227247,4.18798947 Z" id="矩形备份-11" fill="#A5A8AD"></path>
                    <path d="M2.60894934,1.09241978 L9.45002678,0.157207548 C10.0042233,0.0814458974 10.5149052,0.469293956 10.5906669,1.02349043 C10.5968818,1.06895242 10.6,1.11478421 10.6,1.16066904 L10.6,13.3333333 L10.6,13.3333333 L1.73333333,13.3333333 L1.73333333,2.09588126 C1.73333333,1.58954155 2.10727566,1.16100128 2.60894934,1.09241978 Z" id="矩形" fill="#6A6D73"></path>
                    <rect id="矩形" fill="#6A6D73" x="0" y="12.2666667" width="16" height="1.73333333" rx="0.866666667"></rect>
                </g>
            </g>
        </g>
    </g>
</svg>