<?xml version="1.0" encoding="UTF-8"?>
<svg width="24px" height="16px" viewBox="0 0 24 16" version="1.1" xmlns="http://www.w3.org/2000/svg" xmlns:xlink="http://www.w3.org/1999/xlink">
    <title>国旗/土耳其</title>
    <defs>
        <path d="M2,0 L22,0 C23.1045695,-2.02906125e-16 24,0.8954305 24,2 L24,14 C24,15.1045695 23.1045695,16 22,16 L2,16 C0.8954305,16 -5.30863065e-16,15.1045695 0,14 L0,2 C-1.3527075e-16,0.8954305 0.8954305,2.02906125e-16 2,0 Z" id="path-1"></path>
    </defs>
    <g id="页面-1" stroke="none" stroke-width="1" fill="none" fill-rule="evenodd">
        <g id="PanPay网银规范/图标" transform="translate(-988.000000, -554.000000)">
            <g id="国旗/土耳其" transform="translate(988.000000, 554.000000)">
                <mask id="mask-2" fill="white">
                    <use xlink:href="#path-1"></use>
                </mask>
                <use id="路径" fill="#FFFFFF" fill-rule="nonzero" xlink:href="#path-1"></use>
                <g id="土耳其" mask="url(#mask-2)" fill-rule="nonzero">
                    <polygon id="路径" fill="#E30A17" points="0 0 24 0 24 16 0 16"></polygon>
                    <path d="M5.5872154,8 C5.5872154,10.3985 7.50095638,12.343 9.86240513,12.343 C12.2238539,12.343 14.1375949,10.3985 14.1375949,8 C14.1375949,5.6015 12.2238539,3.657 9.86240513,3.657 C7.50095638,3.657 5.5872154,5.6015 5.5872154,8 Z" id="路径" fill="#FFFFFF"></path>
                    <path d="M7.19985072,8 C7.19985072,9.293 7.87857099,10.488 8.98081076,11.1345 C10.0830505,11.781 11.4409823,11.781 12.5432221,11.1345 C13.6454618,10.488 14.3246745,9.293 14.3241812,8 C14.3236873,6.707 13.6454618,5.512 12.5432221,4.8655 C11.4409823,4.219 10.0830505,4.219 8.98081076,4.8655 C7.87752012,5.51358213 7.19880938,6.70811779 7.19985072,8 Z" id="路径" fill="#E30A17"></path>
                    <polygon id="路径" fill="#FFFFFF" points="16.2374283 9.105 15.0749676 8.648 14.2876535 9.6765 14.3626828 8.3815 13.1627075 7.9245 14.4001974 7.5815 14.4377121 6.3245 15.1499969 7.391 16.3499722 7.048 15.5626581 8.0385"></polygon>
                </g>
            </g>
        </g>
    </g>
</svg>