<?xml version="1.0" encoding="UTF-8"?>
<svg width="24px" height="16px" viewBox="0 0 24 16" version="1.1" xmlns="http://www.w3.org/2000/svg" xmlns:xlink="http://www.w3.org/1999/xlink">
    <defs>
        <rect id="path-1" x="0" y="0" width="24" height="16" rx="2"></rect>
    </defs>
    <g id="页面-1" stroke="none" stroke-width="1" fill="none" fill-rule="evenodd">
        <g id="国旗" transform="translate(-48.000000, -32.000000)">
            <g id="国旗/美元" transform="translate(48.000000, 32.000000)">
                <mask id="mask-2" fill="white">
                    <use xlink:href="#path-1"></use>
                </mask>
                <use id="矩形" fill="#D8D8D8" xlink:href="#path-1"></use>
                <g id="国旗/美国" mask="url(#mask-2)" fill-rule="nonzero">
                    <polyline id="路径" fill="#FFFFFF" points="0 0 24 0 24 16 0 16"></polyline>
                    <path d="M0,1.25871875 L24,1.25871875 L24,0 L0,0 M0,2.45540625 L24,2.45540625 L24,3.714125 L0,3.714125 M0,4.91079687 L24,4.91079687 L24,6.16953125 L0,6.16953125 M0,7.36620313 L24,7.36620313 L24,8.6249375 L0,8.6249375 M0,9.83046875 L24,9.83046875 L24,11.0803281 L0,11.0803281 M0,12.285875 L24,12.285875 L24,13.5445937 L0,13.5445937 M0,16 L24,16 L24,14.7412813 L0,14.7412813" id="形状" fill="#E50012"></path>
                    <polyline id="路径" fill="#1E2380" points="0 8.6249375 10.7437065 8.6249375 10.7437065 0 0 0"></polyline>
                    <path d="M0.885709825,1.037125 L1.1514337,1.241 L1.05401202,0.91303125 L1.31972029,0.717984375 L0.983147117,0.717984375 L0.885725437,0.398875 L0.779435887,0.717984375 L0.442862719,0.717984375 L0.717423241,0.913 L0.611149303,1.24096875 L0.885694213,1.03714062 L0.885709825,1.037125 Z M2.67486522,1.037125 L2.94942574,1.241 L2.84313619,0.91303125 L3.11771232,0.718 L2.78113915,0.718 L2.67488083,0.39890625 L2.57745915,0.718015625 L2.24085476,0.718015625 L2.50657863,0.91303125 L2.40915695,1.241 L2.67486522,1.03714062 L2.67486522,1.037125 Z M4.47285725,1.037125 L4.74743339,1.241 L4.64114384,0.91303125 L4.91571997,0.718 L4.57913119,0.718 L4.47284164,0.398890625 L4.36655209,0.718 L4.02997892,0.718 L4.30455506,0.913015625 L4.19826551,1.24098437 L4.47284164,1.037125 L4.47285725,1.037125 Z M6.2708649,1.037125 L6.53657317,1.241 L6.43915149,0.91303125 L6.70485975,0.718 L6.36828658,0.718 L6.2708649,0.398890625 L6.16457535,0.718 L5.82800219,0.718 L6.10257832,0.913015625 L5.99628877,1.24098437 L6.2708649,1.037125 L6.2708649,1.037125 Z M8.06000468,1.037125 L8.33458082,1.241 L8.22829127,0.91303125 L8.50285179,0.718 L8.16629423,0.718 L8.06000468,0.398890625 L7.95371513,0.718 L7.62600984,0.718 L7.8917181,0.913015625 L7.79429642,1.24098437 L8.06000468,1.037125 L8.06000468,1.037125 Z M9.85799672,1.037125 L10.1325729,1.241 L10.0262833,0.91303125 L10.2920072,0.718 L9.96430188,0.718 L9.85799672,0.398890625 L9.75172278,0.718 L9.41514962,0.718 L9.68971014,0.913015625 L9.5834362,1.24098437 L9.85799672,1.037125 L9.85799672,1.037125 Z M1.78027191,1.9058125 L2.05486366,2.10082812 L1.9485741,1.78171875 L2.22315024,1.58670312 L1.88657707,1.58670312 L1.78028752,1.26759375 L1.67399797,1.58670312 L1.3374248,1.58670312 L1.61200094,1.78170312 L1.50571139,2.10082812 L1.78028752,1.90582812 L1.78027191,1.9058125 Z M3.57827956,1.9058125 L3.84400343,2.10082812 L3.74658176,1.78171875 L4.01229002,1.58670312 L3.68458472,1.58670312 L3.57827956,1.26759375 L3.47200562,1.58670312 L3.13543245,1.58670312 L3.41000859,1.78170312 L3.30371904,2.10082812 L3.57827956,1.90582812 L3.57827956,1.9058125 Z M5.36743495,1.9058125 L5.64199547,2.10082812 L5.53572153,1.78171875 L5.81028206,1.58670312 L5.4737245,1.58670312 L5.36745056,1.26759375 L5.27002888,1.58670312 L4.9334401,1.58670312 L5.19916398,1.78170312 L5.1017423,2.10082812 L5.36745056,1.90582812 L5.36743495,1.9058125 Z M7.16542699,1.9058125 L7.44000312,2.10082812 L7.33371357,1.78171875 L7.60828971,1.58670312 L7.27171654,1.58670312 L7.16542699,1.26759375 L7.05913744,1.58670312 L6.72257988,1.58670312 L6.9971404,1.78170312 L6.89086647,2.10082812 L7.16542699,1.90582812 L7.16542699,1.9058125 Z M8.96343464,1.9058125 L9.22915851,2.10082812 L9.12285335,1.78171875 L9.39742949,1.58670312 L9.06085632,1.58670312 L8.96343464,1.26759375 L8.85714509,1.58670312 L8.52057192,1.58670312 L8.79514805,1.78170312 L8.6888585,2.10082812 L8.96343464,1.90582812 L8.96343464,1.9058125 Z M0.885694213,2.77453125 L1.15141809,2.96953125 L1.05399641,2.6504375 L1.31970467,2.45542187 L0.983147117,2.45542187 L0.885725437,2.13629687 L0.779435887,2.45542187 L0.442862719,2.45542187 L0.717423241,2.65042187 L0.611149303,2.96954687 L0.885709825,2.77453125 L0.885694213,2.77453125 Z M2.6748496,2.77453125 L2.94941013,2.96953125 L2.84312058,2.6504375 L3.11769671,2.45542187 L2.78112354,2.45542187 L2.6748496,2.13629687 L2.57742792,2.45542187 L2.24085476,2.45542187 L2.50657863,2.65042187 L2.40915695,2.96954687 L2.67486522,2.77453125 L2.6748496,2.77453125 Z M4.47284164,2.77453125 L4.74741778,2.96953125 L4.64112823,2.6504375 L4.91570436,2.45542187 L4.57913119,2.45542187 L4.47284164,2.13629687 L4.36655209,2.45542187 L4.02997892,2.45542187 L4.30455506,2.65042187 L4.19826551,2.96954687 L4.47284164,2.77453125 Z M6.27084929,2.77453125 L6.53655756,2.96953125 L6.43913588,2.6504375 L6.70484414,2.45542187 L6.36827097,2.45542187 L6.27084929,2.13629687 L6.16455974,2.45542187 L5.82798657,2.45542187 L6.10256271,2.65042187 L5.99627316,2.96954687 L6.27084929,2.77453125 Z M8.05998907,2.77453125 L8.33456521,2.96953125 L8.22827566,2.6504375 L8.50283618,2.45542187 L8.16627862,2.45542187 L8.05998907,2.13629687 L7.95369952,2.45542187 L7.62599422,2.45542187 L7.89170249,2.65042187 L7.79428081,2.96954687 L8.05998907,2.77453125 Z M9.85798111,2.77453125 L10.1325572,2.96953125 L10.0262677,2.6504375 L10.2919916,2.45542187 L9.96428627,2.45542187 L9.85798111,2.13629687 L9.75170717,2.45542187 L9.415134,2.45542187 L9.68969452,2.65042187 L9.58342059,2.96954687 L9.85798111,2.77453125 Z M1.7802563,3.64323437 L2.05484804,3.83823437 L1.94855849,3.519125 L2.22313463,3.324125 L1.88656146,3.324125 L1.78027191,3.005 L1.67398236,3.32410937 L1.3374248,3.32410937 L1.61200094,3.519125 L1.50571139,3.83825 L1.78028752,3.64323437 L1.7802563,3.64323437 Z M3.57826395,3.64323437 L3.84398782,3.83823437 L3.74656614,3.519125 L4.01227441,3.324125 L3.68456911,3.324125 L3.57826395,3.005 L3.47199001,3.32410937 L3.13541684,3.32410937 L3.40999297,3.519125 L3.30370342,3.83825 L3.57826395,3.64323437 Z M5.36741934,3.64323437 L5.64197986,3.83823437 L5.53570592,3.519125 L5.81026644,3.324125 L5.4737245,3.324125 L5.36745056,3.005 L5.27002888,3.32410937 L4.9334401,3.32410937 L5.19916398,3.519125 L5.1017423,3.83825 L5.36745056,3.64323437 L5.36741934,3.64323437 Z M7.16541138,3.64323437 L7.43998751,3.83823437 L7.33369796,3.519125 L7.60827409,3.324125 L7.27170093,3.324125 L7.16541138,3.005 L7.05912182,3.32410937 L6.72256427,3.32410937 L6.99712479,3.519125 L6.89085085,3.83825 L7.16541138,3.64323437 Z M8.96341903,3.64323437 L9.2291429,3.83823437 L9.12283774,3.519125 L9.39741387,3.324125 L9.06084071,3.324125 L8.96341903,3.005 L8.85712948,3.32410937 L8.52055631,3.32410937 L8.79513244,3.519125 L8.68884289,3.83825 L8.96341903,3.64323437 Z M0.885694213,4.51190625 L1.15141809,4.70692187 L1.05399641,4.3878125 L1.31970467,4.1928125 L0.983147117,4.1928125 L0.885725437,3.8736875 L0.779435887,4.19279687 L0.442862719,4.19279687 L0.717423241,4.38779687 L0.611149303,4.70692187 L0.885709825,4.51192187 L0.885694213,4.51190625 Z M2.6748496,4.51190625 L2.94941013,4.70692187 L2.84312058,4.3878125 L3.11769671,4.1928125 L2.78112354,4.1928125 L2.6748496,3.8736875 L2.57742792,4.19279687 L2.24085476,4.19279687 L2.50657863,4.38779687 L2.40915695,4.70692187 L2.67486522,4.51192187 L2.6748496,4.51190625 Z M4.47284164,4.51190625 L4.74741778,4.70692187 L4.64112823,4.3878125 L4.91570436,4.1928125 L4.57913119,4.1928125 L4.47284164,3.8736875 L4.36655209,4.19279687 L4.02997892,4.19279687 L4.30455506,4.38779687 L4.19826551,4.70692187 L4.47284164,4.51192187 L4.47284164,4.51190625 Z M6.27084929,4.51190625 L6.53655756,4.70692187 L6.43913588,4.3878125 L6.70484414,4.1928125 L6.36827097,4.1928125 L6.27084929,3.8736875 L6.16455974,4.19279687 L5.82798657,4.19279687 L6.10256271,4.38779687 L5.99627316,4.70692187 L6.27084929,4.51192187 L6.27084929,4.51190625 Z M8.05998907,4.51190625 L8.33456521,4.70692187 L8.22827566,4.3878125 L8.50283618,4.1928125 L8.16627862,4.1928125 L8.05998907,3.8736875 L7.95369952,4.19279687 L7.62599422,4.19279687 L7.89170249,4.38779687 L7.79428081,4.70692187 L8.05998907,4.51192187 L8.05998907,4.51190625 Z M9.85798111,4.51190625 L10.1325572,4.70692187 L10.0262677,4.3878125 L10.2919916,4.1928125 L9.96428627,4.1928125 L9.85798111,3.8736875 L9.75170717,4.19279687 L9.415134,4.19279687 L9.68969452,4.38779687 L9.58342059,4.70692187 L9.85798111,4.51192187 L9.85798111,4.51190625 Z M1.78028752,5.380625 L2.05487927,5.575625 L1.94858972,5.25653125 L2.22316585,5.06151562 L1.88659268,5.06151562 L1.78030313,4.74239062 L1.67401358,5.06151562 L1.3374248,5.06151562 L1.61200094,5.25651562 L1.50571139,5.57564062 L1.78028752,5.380625 L1.78028752,5.380625 Z M3.57829517,5.380625 L3.84401905,5.575625 L3.74659737,5.25653125 L4.01230563,5.06151562 L3.68460033,5.06151562 L3.57829517,4.74239062 L3.47202123,5.06151562 L3.13544806,5.06151562 L3.4100242,5.25651562 L3.30373465,5.57564062 L3.57829517,5.380625 Z M5.36745056,5.380625 L5.64201108,5.575625 L5.53573715,5.25653125 L5.81029767,5.06151562 L5.4737245,5.06151562 L5.36745056,4.74239062 L5.27002888,5.06151562 L4.9334401,5.06151562 L5.19916398,5.25651562 L5.1017423,5.57564062 L5.36745056,5.380625 L5.36745056,5.380625 Z M7.1654426,5.380625 L7.44001873,5.575625 L7.33372918,5.25653125 L7.60830532,5.06151562 L7.27173215,5.06151562 L7.1654426,4.74239062 L7.05915305,5.06151562 L6.72259549,5.06151562 L6.99715602,5.25651562 L6.89088208,5.57564062 L7.1654426,5.380625 Z M8.96345025,5.380625 L9.22917413,5.575625 L9.12286896,5.25653125 L9.3974451,5.06151562 L9.06087193,5.06151562 L8.96345025,4.74239062 L8.8571607,5.06151562 L8.52058753,5.06151562 L8.79516367,5.25651562 L8.68887412,5.57564062 L8.96345025,5.380625 Z M0.885694213,6.2493125 L1.15141809,6.4443125 L1.05399641,6.12520312 L1.31970467,5.92132812 L0.983147117,5.92132812 L0.885725437,5.61107812 L0.779435887,5.92132812 L0.442862719,5.92132812 L0.717423241,6.12520312 L0.611149303,6.44432812 L0.885709825,6.2493125 L0.885694213,6.2493125 Z M2.6748496,6.2493125 L2.94941013,6.4443125 L2.84312058,6.12520312 L3.11769671,5.92132812 L2.78112354,5.92132812 L2.6748496,5.61107812 L2.57742792,5.92132812 L2.24085476,5.92132812 L2.50657863,6.12520312 L2.40915695,6.44432812 L2.67486522,6.2493125 L2.6748496,6.2493125 Z M4.47284164,6.2493125 L4.74741778,6.4443125 L4.64112823,6.12520312 L4.91570436,5.92132812 L4.57913119,5.92132812 L4.47284164,5.61107812 L4.36655209,5.92132812 L4.02997892,5.92132812 L4.30455506,6.12520312 L4.19826551,6.44432812 L4.47284164,6.2493125 Z M6.27084929,6.2493125 L6.53655756,6.4443125 L6.43913588,6.12520312 L6.70484414,5.92132812 L6.36827097,5.92132812 L6.27084929,5.61107812 L6.16455974,5.92132812 L5.82798657,5.92132812 L6.10256271,6.12520312 L5.99627316,6.44432812 L6.27084929,6.2493125 Z M8.05998907,6.2493125 L8.33456521,6.4443125 L8.22827566,6.12520312 L8.50283618,5.92132812 L8.16627862,5.92132812 L8.05998907,5.61107812 L7.95369952,5.92132812 L7.62599422,5.92132812 L7.89170249,6.12520312 L7.79428081,6.44432812 L8.05998907,6.2493125 Z M9.85798111,6.2493125 L10.1325572,6.4443125 L10.0262677,6.12520312 L10.2919916,5.92132812 L9.96428627,5.92132812 L9.85798111,5.61107812 L9.75170717,5.92132812 L9.415134,5.92132812 L9.68969452,6.12520312 L9.58342059,6.44432812 L9.85798111,6.2493125 Z M1.7802563,7.118 L2.05484804,7.31301562 L1.94855849,6.99390625 L2.22313463,6.79003125 L1.88656146,6.79003125 L1.78027191,6.47092187 L1.67398236,6.79003125 L1.3374248,6.79003125 L1.61200094,6.99390625 L1.50571139,7.31301562 L1.78028752,7.11801562 L1.7802563,7.118 Z M3.57826395,7.118 L3.84398782,7.31301562 L3.74656614,6.99390625 L4.01227441,6.79003125 L3.68456911,6.79003125 L3.57826395,6.47092187 L3.47199001,6.79003125 L3.13541684,6.79003125 L3.40999297,6.99390625 L3.30370342,7.31301562 L3.57826395,7.11801562 L3.57826395,7.118 Z M5.36741934,7.118 L5.64197986,7.31301562 L5.53570592,6.99390625 L5.81026644,6.79003125 L5.4737245,6.79003125 L5.36745056,6.47092187 L5.27002888,6.79003125 L4.9334401,6.79003125 L5.19916398,6.99390625 L5.1017423,7.31301562 L5.36745056,7.11801562 L5.36741934,7.118 Z M7.16541138,7.118 L7.43998751,7.31301562 L7.33369796,6.99390625 L7.60827409,6.79003125 L7.27170093,6.79003125 L7.16541138,6.47092187 L7.05912182,6.79003125 L6.72256427,6.79003125 L6.99712479,6.99390625 L6.89085085,7.31301562 L7.16541138,7.11801562 L7.16541138,7.118 Z M8.96341903,7.118 L9.2291429,7.31301562 L9.12283774,6.99390625 L9.39741387,6.79003125 L9.06084071,6.79003125 L8.96341903,6.47092187 L8.85712948,6.79003125 L8.52055631,6.79003125 L8.79513244,6.99390625 L8.68884289,7.31301562 L8.96341903,7.11801562 L8.96341903,7.118 Z M0.885694213,7.97784375 L1.15141809,8.18171875 L1.05399641,7.86260937 L1.31970467,7.65871875 L0.983147117,7.65871875 L0.885725437,7.33960937 L0.779435887,7.65871875 L0.442862719,7.65871875 L0.717423241,7.86260937 L0.611149303,8.18171875 L0.885709825,7.97784375 L0.885694213,7.97784375 Z M2.6748496,7.97784375 L2.94941013,8.18171875 L2.84312058,7.86260937 L3.11769671,7.65871875 L2.78112354,7.65871875 L2.6748496,7.33960937 L2.57742792,7.65871875 L2.24085476,7.65871875 L2.50657863,7.86260937 L2.40915695,8.18171875 L2.67486522,7.97784375 L2.6748496,7.97784375 Z M4.47284164,7.97784375 L4.74741778,8.18171875 L4.64112823,7.86260937 L4.91570436,7.65871875 L4.57913119,7.65871875 L4.47284164,7.33960937 L4.36655209,7.65871875 L4.02997892,7.65871875 L4.30455506,7.86260937 L4.19826551,8.18171875 L4.47284164,7.97784375 Z M6.27084929,7.97784375 L6.53655756,8.18171875 L6.43913588,7.86260937 L6.70484414,7.65871875 L6.36827097,7.65871875 L6.27084929,7.33960937 L6.16455974,7.65871875 L5.82798657,7.65871875 L6.10256271,7.86260937 L5.99627316,8.18171875 L6.27084929,7.97784375 Z M8.05998907,7.97784375 L8.33456521,8.18171875 L8.22827566,7.86260937 L8.50283618,7.65871875 L8.16627862,7.65871875 L8.05998907,7.33960937 L7.95369952,7.65871875 L7.62599422,7.65871875 L7.89170249,7.86260937 L7.79428081,8.18171875 L8.05998907,7.97784375 Z M9.85798111,7.97784375 L10.1325572,8.18171875 L10.0262677,7.86260937 L10.2919916,7.65871875 L9.96428627,7.65871875 L9.85798111,7.33960937 L9.75170717,7.65871875 L9.415134,7.65871875 L9.68969452,7.86260937 L9.58342059,8.18171875 L9.85798111,7.97784375 Z" id="形状" fill="#FFFFFF"></path>
                </g>
            </g>
        </g>
    </g>
</svg>